<?xml version="1.0" standalone="no"?>
<!DOCTYPE svg PUBLIC "-//W3C//DTD SVG 1.1//EN" "http://www.w3.org/Graphics/SVG/1.1/DTD/svg11.dtd" >
<svg xmlns="http://www.w3.org/2000/svg">
<metadata></metadata>
<defs>
<font id="metabook-romanregular" horiz-adv-x="1163" >
<font-face units-per-em="2048" ascent="1610" descent="-438" />
<missing-glyph horiz-adv-x="460" />
<glyph horiz-adv-x="2048" />
<glyph horiz-adv-x="2048" />
<glyph unicode="&#xd;" horiz-adv-x="1024" />
<glyph unicode=" "  horiz-adv-x="460" />
<glyph unicode="&#x09;" horiz-adv-x="460" />
<glyph unicode="&#xa0;" horiz-adv-x="460" />
<glyph unicode="!" horiz-adv-x="575" d="M154 123q0 -59 37.5 -99t93.5 -40q55 0 96 40t41 99q0 55 -40 94t-95 39q-57 0 -95 -39t-38 -94zM166 1407l47 -977h143l45 1012z" />
<glyph unicode="&#x22;" horiz-adv-x="868" d="M164 928h174v524h-174v-524zM530 928h175v524h-175v-524z" />
<glyph unicode="#" horiz-adv-x="1128" d="M61 432h187l-60 -432h148l59 432h250l-59 -432h147l62 432h211v139h-193l43 310h211v141h-193l60 428h-148l-59 -428h-250l60 428h-148l-59 -428h-209v-141h188l-41 -310h-207v-139zM416 571l43 310h250l-43 -310h-250z" />
<glyph unicode="$" horiz-adv-x="1191" d="M102 98q94 -57 204 -90t233 -33v-184h127v191q90 12 167.5 50t134 95t89.5 131t33 158q0 72 -25 136t-70 118q-41 49 -99 82.5t-151 62.5l-79 25v438q70 0 142.5 -27.5t154.5 -79.5l88 140q-82 57 -183.5 93t-201.5 40v162h-127v-164q-180 -29 -283.5 -135.5 t-103.5 -274.5q0 -133 75 -221q39 -47 91.5 -76.5t146.5 -60.5l74 -25v-512q-104 0 -190.5 32t-168.5 83zM371 1067q0 86 41 133t127 70v-398q-92 35 -130 80t-38 115zM666 145v465q94 -29 147 -86t53 -143q0 -92 -56 -153.5t-144 -82.5z" />
<glyph unicode="%" horiz-adv-x="1740" d="M82 1079q0 -162 88 -255t248 -93q74 0 136 24.5t106.5 68.5t69 107.5t24.5 143.5q0 166 -89.5 258t-250.5 92q-150 0 -241 -93t-91 -253zM240 1087q0 221 176 222q92 0 136 -53.5t44 -188.5q0 -219 -176 -219q-90 0 -135 53t-45 186zM455 2h139l698 1405h-141zM987 332 q0 -162 88 -255t248 -93q74 0 136.5 24.5t106.5 68.5t68.5 107.5t24.5 143.5q0 166 -89 258t-251 92q-150 0 -241 -93t-91 -253zM1145 340q0 221 176 221q92 0 136 -53.5t44 -188.5q0 -219 -176 -219q-90 0 -135 53.5t-45 186.5z" />
<glyph unicode="&#x26;" horiz-adv-x="1390" d="M113 352q0 -82 29.5 -151.5t90 -120.5t150.5 -80t211 -29q123 0 227.5 41t169.5 113l123 -121h256l-268 268q18 39 31.5 78t21.5 84t12 103.5t4 138.5h-155q0 -66 -7.5 -142.5t-31.5 -134.5l-305 303q53 25 105 57t93 72.5t66 92t25 114.5q0 74 -31 133.5t-83 99.5 t-122 61.5t-150 21.5q-84 0 -152.5 -25.5t-117.5 -70t-75.5 -104.5t-26.5 -128q0 -94 46 -164.5t146 -150.5q-63 -33 -115.5 -67t-89 -76t-57 -94t-20.5 -122zM317 350q1 168 181 262l387 -381q-41 -53 -116 -85.5t-169 -32.5q-135 0 -209 63.5t-74 173.5zM399 1047 q0 88 52.5 131t126.5 43q78 0 129 -50.5t51 -132.5q0 -78 -46 -135t-145 -104q-78 63 -123 123.5t-45 124.5z" />
<glyph unicode="'" horiz-adv-x="501" d="M164 928h174v524h-174v-524z" />
<glyph unicode="(" horiz-adv-x="604" d="M113 659q0 -66 4 -140.5t13 -150t25.5 -147t39.5 -129.5q57 -154 161.5 -260.5t239.5 -157.5l49 99q-63 31 -109.5 74.5t-79 93t-55 100.5t-36.5 94q-18 61 -29.5 136t-19 149t-9.5 138.5t-2 105.5q0 135 12.5 253.5t40.5 210.5q18 61 44 111.5t60 93.5t79 81t100 75 l-47 98q-129 -55 -226.5 -157.5t-158.5 -219.5q-29 -53 -47.5 -119.5t-29.5 -139t-15 -147.5t-4 -145z" />
<glyph unicode=")" horiz-adv-x="606" d="M-41 -227l49 -99q135 51 237.5 160t164.5 258q25 57 41 129t25 147.5t13.5 150t4.5 140.5q0 70 -5.5 145t-16.5 147.5t-29.5 139t-47.5 119.5q-61 117 -158.5 219.5t-226.5 157.5l-47 -98q111 -74 180.5 -156t102.5 -205q25 -92 40 -210.5t15 -253.5q0 -41 -2 -105.5 t-8 -138.5t-18.5 -148.5t-32.5 -136.5q-14 -43 -37 -94t-55.5 -100.5t-78.5 -93.5t-110 -74z" />
<glyph unicode="*" horiz-adv-x="921" d="M61 1108l287 -98l-178 -246l115 -88l174 252l182 -256l115 90l-178 248l282 96l-43 137l-285 -96v303h-139v-305l-287 102z" />
<glyph unicode="+" horiz-adv-x="1157" d="M102 465h390v-395h174v395h389v178h-389v395h-174v-395h-390v-178z" />
<glyph unicode="," horiz-adv-x="587" d="M123 -201l65 -92q53 23 100.5 59.5t82.5 84t54 103t19 116.5q0 94 -48 152.5t-122 58.5q-63 0 -106 -44t-43 -110q0 -53 20.5 -78.5t45 -40t45 -25t20.5 -30.5q0 -41 -38 -86t-95 -68z" />
<glyph unicode="-" horiz-adv-x="620" d="M102 461h416v186h-416v-186z" />
<glyph unicode="." horiz-adv-x="577" d="M143 125q0 -63 41 -108.5t105 -45.5q63 0 104 45.5t41 108.5t-41 108.5t-104 45.5t-104.5 -45.5t-41.5 -108.5z" />
<glyph unicode="/" horiz-adv-x="917" d="M123 -305h139l533 1864h-140z" />
<glyph unicode="0" horiz-adv-x="1148" d="M113 514q0 -125 31.5 -225.5t91 -171t145.5 -108.5t194 -38q104 0 189.5 38t146 107.5t93 170t32.5 223.5q0 125 -31.5 226.5t-91 172t-145.5 108.5t-195 38q-104 0 -189 -38t-145.5 -108.5t-93 -170t-32.5 -224.5zM315 535q0 375 256 374q66 0 115 -21.5t82 -70.5 t49.5 -128.5t16.5 -196.5q0 -375 -256 -375q-66 0 -115 21.5t-82 70.5t-49.5 129t-16.5 197z" />
<glyph unicode="1" horiz-adv-x="864" d="M92 795l45 -99q70 27 134.5 57.5t136.5 77.5v-679h-201v-152h565v152h-180v899h-137z" />
<glyph unicode="2" horiz-adv-x="1112" d="M113 879l92 -105l24 21q27 20 70 43.5t98.5 44t112.5 20.5q98 0 152.5 -42t54.5 -128q0 -53 -21.5 -99t-61.5 -89t-97.5 -88t-126.5 -97l-267 -194v-166h797l39 156h-401q-27 0 -63 -1t-68.5 -2t-57.5 -3h-22l239 167q47 33 104.5 79t107.5 103.5t84 123t34 139.5 q0 70 -27.5 127t-77 97t-118 61.5t-150.5 21.5q-129 0 -233.5 -46t-216.5 -144z" />
<glyph unicode="3" horiz-adv-x="1058" d="M72 897l90 -106q82 49 153.5 80.5t161.5 31.5q104 0 164.5 -56t60.5 -149q0 -94 -56 -141t-150 -59q-14 -2 -30.5 -3t-37.5 -1h-37q-16 0 -33 2l-49 2v-146l47 2q55 4 120 -2t106 -20q68 -23 107.5 -80t39.5 -131q0 -68 -26.5 -125t-71.5 -102.5t-107.5 -77t-132.5 -45.5 q-31 -6 -70.5 -11.5t-81.5 -6.5t-82 0t-73 7l41 -127q37 -6 59.5 -7t63.5 -1q217 0 361.5 58.5t242.5 169.5q47 53 70.5 117t23.5 134q0 111 -76.5 196t-205.5 118q129 41 188 122t59 185q0 74 -29.5 135.5t-84 105.5t-128 69.5t-161.5 25.5q-117 0 -233.5 -46t-202.5 -118z " />
<glyph unicode="4" horiz-adv-x="1132" d="M72 16h526h53l31 2v-14q0 -12 -1 -31.5t-1 -29.5v-330l182 39v297q0 25 -4 49l-2 22l21 -2q22 -2 45 -2h98v156h-90q-20 0 -47 -2h-25l2 63q2 16 2 31v473l-147 -41l-23 -268q-4 -43 -7 -87t-3 -79v-33l4 -59h-18q-14 0 -36 1t-34 1h-254q-23 0 -43 -3t-37 -3 q6 8 18.5 27.5t26 44t27.5 52t26 52.5l351 725h-201l-440 -909v-142z" />
<glyph unicode="5" horiz-adv-x="1003" d="M102 -227l37 -138q41 -10 71 -14t77 -4q125 0 235.5 36t192.5 101.5t129 157.5t47 205q0 92 -32 163.5t-89 122t-134 77t-165 26.5h-33q-18 0 -39.5 -2t-58.5 -8l33 370h424l28 160h-626l-66 -711q63 23 132 34t136 11q131 0 208 -66.5t77 -189.5q0 -76 -32.5 -141 t-89 -113.5t-134.5 -76t-168 -27.5q-88 0 -160 27z" />
<glyph unicode="6" horiz-adv-x="1150" d="M113 535q0 -127 33.5 -231.5t96 -178.5t149.5 -115t192 -41q96 0 179 35t144.5 95.5t96 143.5t34.5 179q0 94 -34.5 170t-92 129t-131 81.5t-153.5 28.5q-76 0 -148.5 -25.5t-134.5 -80.5q25 86 62.5 171t117.5 173q35 39 82 76t99.5 68.5t105.5 57t102 42.5l-43 127 q-117 -35 -218 -89.5t-193 -129.5q-74 -59 -137.5 -134t-109.5 -161t-72.5 -184.5t-26.5 -206.5zM328 471q0 29 1 55.5t5 63.5q131 94 258 94q104 0 171.5 -68.5t67.5 -197.5q0 -141 -67.5 -222t-183.5 -81q-119 0 -185.5 89t-66.5 267z" />
<glyph unicode="7" horiz-adv-x="985" d="M51 862h522q43 0 95.5 2t74.5 8q-80 -92 -158.5 -210.5t-164.5 -278.5q-57 -106 -105.5 -209.5t-87.5 -208.5q-20 -51 -34.5 -92t-26.5 -80t-22.5 -83t-22.5 -101l221 59q18 86 59 201t95 240q59 143 119.5 267t113.5 212q20 33 45 72.5t48.5 75.5t43 66t29.5 44l39 180 h-840z" />
<glyph unicode="8" horiz-adv-x="1179" d="M113 346q0 -84 32.5 -153.5t94 -119.5t147.5 -79t193 -29q106 0 196 31t154.5 85t100.5 128t36 162q0 82 -29.5 136t-89.5 101q-25 20 -54.5 39t-59 34t-56 27.5t-45.5 18.5q141 49 214 130t73 192q0 72 -31 131t-85 102t-131 66.5t-169 23.5q-211 0 -328.5 -95 t-117.5 -255q0 -94 56 -178t181 -137q-55 -23 -106 -56t-90 -78t-62.5 -101t-23.5 -126zM315 360q0 106 55.5 169t139.5 110q117 -47 183.5 -81t105.5 -69q63 -57 63 -157t-73.5 -164t-190.5 -64q-129 0 -206 70t-77 186zM346 1040q0 92 63.5 144.5t174.5 52.5t175 -50.5 t64 -142.5q0 -72 -51 -132t-168 -119q-135 55 -196.5 112.5t-61.5 134.5z" />
<glyph unicode="9" horiz-adv-x="1120" d="M92 600q0 -94 31 -174t86 -138.5t131 -91t166 -32.5q123 0 242 82q-35 -92 -88.5 -178t-145.5 -164q-43 -37 -95 -72t-106.5 -63.5t-108.5 -49t-102 -28.5l99 -111q61 12 129.5 38t137.5 63.5t133.5 86t119.5 105.5q137 143 212 314.5t75 357.5q0 123 -33 219 t-93.5 162.5t-143.5 102.5t-181 36t-183 -35t-147.5 -97.5t-98.5 -147.5t-36 -185zM301 606q0 141 67.5 227.5t180.5 86.5q117 0 184.5 -94.5t67.5 -254.5q0 -43 -5 -75.5t-16 -81.5q-59 -53 -115.5 -78t-121.5 -25q-113 0 -177.5 77t-64.5 218z" />
<glyph unicode=":" horiz-adv-x="616" d="M164 121q0 -61 41 -103.5t100 -42.5q61 0 104.5 42.5t43.5 103.5q0 63 -42 107t-102 44q-61 0 -103 -44t-42 -107zM164 764q0 -61 42 -103.5t101 -42.5t102.5 43.5t43.5 106.5q0 59 -42 102t-102 43q-61 0 -103 -44t-42 -105z" />
<glyph unicode=";" horiz-adv-x="649" d="M164 -201l65 -92q53 23 100.5 59.5t82 84t54 103t19.5 116.5q0 94 -48 152.5t-122 58.5q-63 0 -106 -44t-43 -110q0 -53 20.5 -78.5t45 -40t45 -25t20.5 -30.5q0 -41 -38 -86t-95 -68zM166 766q0 -61 43 -105.5t102 -44.5t102.5 44.5t43.5 103.5t-44 103t-104 44 q-59 0 -101 -43t-42 -102z" />
<glyph unicode="&#x3c;" horiz-adv-x="696" d="M41 614l418 -555l155 113l-331 442l331 441l-155 112z" />
<glyph unicode="=" horiz-adv-x="1280" d="M102 358h1076v170h-1076v-170zM102 717h1076v170h-1076v-170z" />
<glyph unicode="&#x3e;" horiz-adv-x="696" d="M82 172l154 -113l419 555l-419 553l-154 -112l332 -441z" />
<glyph unicode="?" horiz-adv-x="894" d="M82 1303l80 -123q45 31 109.5 60.5t146.5 29.5q78 0 132 -44t54 -124q0 -47 -16.5 -78t-41 -55.5t-55 -46t-57.5 -45.5q-88 -80 -118.5 -171.5t-12.5 -201.5q2 -6 4 -21.5t4 -21.5h162q-2 16 -4 31.5t-4 31.5q-6 80 22.5 152t102.5 125q18 12 52 36.5t67.5 63.5t58.5 93 t25 126t-26 130.5t-71 99.5t-106.5 62.5t-132.5 21.5q-117 0 -216.5 -40t-158.5 -91zM272 123q0 -61 40 -105.5t100 -44.5q59 0 102 44.5t43 105.5q0 59 -43 99t-102 40t-99.5 -40t-40.5 -99z" />
<glyph unicode="@" horiz-adv-x="1886" d="M113 420q0 -184 65.5 -325.5t177 -238t258 -145.5t310.5 -49q86 0 171 11.5t160 35.5l-36 139q-129 -45 -295 -45q-129 0 -244 45.5t-200 127t-135 195.5t-50 249q0 139 48 269t135 231.5t210 162t273 60.5q141 0 257.5 -46t199.5 -124t129 -183.5t46 -224.5 q0 -98 -23.5 -182t-61.5 -144.5t-88 -95t-105 -34.5q-35 0 -57.5 8t-34 29.5t-10.5 59.5t14 97q29 141 58.5 277.5t70.5 273.5q-66 35 -133.5 54.5t-143.5 19.5q-139 0 -243.5 -53.5t-175 -142.5t-106.5 -202.5t-36 -236.5q0 -78 21.5 -133.5t56.5 -92t79 -54t91 -17.5 q92 0 173 44t134 110q6 -72 60.5 -125.5t175.5 -53.5q94 0 179 42t148.5 120t100.5 187.5t37 244.5q0 162 -62.5 294t-172 226.5t-258 144.5t-320.5 50q-184 0 -340 -66.5t-268.5 -183.5t-176 -273.5t-63.5 -336.5zM698 285q0 86 20.5 176t65.5 163.5t115 121t166 47.5 q57 -1 86 -15l-80 -366q-14 -68 -45 -118t-68.5 -83t-77.5 -49.5t-71 -16.5q-53 0 -82 29t-29 111z" />
<glyph unicode="A" d="M0 0h205l123 399h489l125 -399h221l-454 1413h-246zM377 563q6 16 21.5 66.5t36 116t43 140.5t42 141.5t33.5 117.5t18 72h13q4 -20 18 -72.5t32.5 -119.5t41 -141.5t42 -140t35 -115t21.5 -65.5h-397z" />
<glyph unicode="B" horiz-adv-x="1224" d="M174 0h430q55 0 115.5 5t107.5 18q123 33 204 125t81 239q0 141 -78 235.5t-237 129.5q129 39 192.5 119.5t63.5 191.5q0 193 -191 295q-33 18 -64.5 28.5t-74.5 16.5t-102.5 7t-147.5 1h-299v-1411zM367 815v430h192q53 0 86 -3t57 -11q61 -18 99.5 -72.5t38.5 -128.5 q0 -35 -10.5 -71.5t-30.5 -65.5q-16 -20 -32.5 -35.5t-40.5 -25t-55.5 -13.5t-80.5 -4h-223zM369 160v491h227q53 0 86 -3t61 -9q66 -16 109 -79.5t43 -149.5q0 -68 -22.5 -115t-57.5 -78t-80 -44t-88 -13h-278z" />
<glyph unicode="C" horiz-adv-x="1167" d="M113 694q0 -307 153 -504q80 -104 188.5 -157t250.5 -53h4q214 0 376 116l-96 129q-57 -45 -117.5 -66.5t-142.5 -21.5q-113 0 -205 56.5t-141 173.5q-27 61 -39 137t-12 194q0 129 16.5 220.5t50.5 158.5q49 98 129 150.5t185 52.5q72 0 131 -19.5t119 -62.5l96 129 q-66 53 -156 82t-190 29q-166 0 -298 -85t-210 -239q-45 -86 -68.5 -191.5t-23.5 -228.5z" />
<glyph unicode="D" horiz-adv-x="1267" d="M174 0h352q184 0 293 49t182 141q72 88 113 214.5t41 300.5q0 299 -125 473q-96 133 -221 183t-307 50h-328v-1411zM375 162v1091h160q104 0 170.5 -25.5t125.5 -99.5q63 -80 84 -190.5t21 -257.5q0 -104 -18.5 -196.5t-57.5 -164.5q-47 -86 -127 -121.5t-203 -35.5h-155 z" />
<glyph unicode="E" horiz-adv-x="1026" d="M174 0h791v170h-590v483h452v166h-454v430h542l27 162h-768v-1411z" />
<glyph unicode="F" horiz-adv-x="888" d="M174 0h199v662h418v159h-418v428h510l26 162h-735v-1411z" />
<glyph unicode="G" horiz-adv-x="1304" d="M113 698q0 -174 38.5 -302t124.5 -226q162 -190 447 -190q113 0 222.5 29.5t195.5 82.5v660h-488l33 -162h260v-402q-43 -25 -96 -39t-113 -14q-92 0 -174 34t-129 93q-100 131 -100 426q0 63 3 114.5t11 99.5t23.5 93t40.5 97q47 98 122.5 139t180.5 41 q82 0 152.5 -24.5t148.5 -82.5l94 123q-166 141 -399 142q-104 0 -190.5 -29t-164.5 -92q-123 -100 -183 -248t-60 -363z" />
<glyph unicode="H" horiz-adv-x="1280" d="M174 0h195v670h538v-670h199v1411h-199v-580h-538v580h-195v-1411z" />
<glyph unicode="I" horiz-adv-x="548" d="M174 0h201v1411h-201v-1411z" />
<glyph unicode="J" horiz-adv-x="559" d="M-10 -180l92 -109q72 27 132 71t101 103q20 31 33.5 64t22 73.5t11.5 96t3 131.5v1161h-199v-1175q0 -57 -2 -98.5t-7 -72t-11 -53t-14 -41.5q-23 -41 -66 -82t-96 -69z" />
<glyph unicode="K" d="M174 0h201v1411h-201v-1411zM383 754l504 -754h256l-535 756l516 655h-247z" />
<glyph unicode="L" horiz-adv-x="931" d="M174 0h705l32 164h-536v1247h-201v-1411z" />
<glyph unicode="M" horiz-adv-x="1636" d="M123 0h192l72 934q2 27 5 63.5t5 73.5t3 70t1 51h5q6 -29 23 -102.5t40 -155.5l258 -934h170l281 979q16 57 30.5 118.5t20.5 92.5h4q0 -33 3 -101.5t7 -127.5l74 -961h196l-120 1411h-279l-246 -876q-20 -72 -32.5 -133.5t-16.5 -88.5h-4q-4 23 -16.5 84.5t-34.5 147.5 l-238 866h-276z" />
<glyph unicode="N" horiz-adv-x="1288" d="M174 0h199l-8 741q-2 98 -5.5 199.5t-11.5 194.5l12 2q10 -31 28 -75t41.5 -94t50 -106.5t52.5 -111.5l371 -750h211v1411h-190l4 -692q0 -59 2 -126t5 -127t7 -106.5t6 -60.5l-12 -4q-4 14 -17.5 52t-34 87t-43 102.5t-44.5 96.5l-394 778h-229v-1411z" />
<glyph unicode="O" horiz-adv-x="1376" d="M113 711q0 -160 35.5 -294t108.5 -231.5t182.5 -153t254.5 -55.5q135 0 240.5 51.5t178.5 145.5t112 226t39 296q0 147 -32 281.5t-101.5 236t-180 162t-266.5 60.5q-129 0 -234.5 -48.5t-180 -140.5t-115.5 -227t-41 -309zM334 733q0 274 81 411.5t269 137.5 q100 0 168 -41t108.5 -117.5t59 -189.5t18.5 -256q0 -295 -90 -423t-254 -128q-104 0 -172.5 44t-110.5 124t-59.5 191.5t-17.5 246.5z" />
<glyph unicode="P" horiz-adv-x="1114" d="M174 0h197v553h233q113 0 178.5 22.5t118.5 63.5q94 72 133 156.5t39 205.5q0 229 -186 345q-29 18 -59.5 30.5t-68.5 20.5t-89.5 11t-118.5 3h-377v-1411zM371 713v536h184q86 0 139.5 -17.5t89.5 -51.5q70 -68 70 -201q0 -59 -15.5 -104.5t-43.5 -81.5 q-35 -43 -83 -61.5t-120 -18.5h-221z" />
<glyph unicode="Q" horiz-adv-x="1376" d="M113 713q0 -174 38.5 -311.5t124.5 -235.5q70 -86 167.5 -136t238.5 -50q102 -23 166.5 -56t130.5 -76q23 -14 53.5 -32.5t65.5 -33.5t71.5 -26.5t71.5 -11.5q51 0 80 7t39 13l55 140q-14 -4 -37.5 -6t-50.5 -2q-59 0 -105 19t-81 39.5t-82 48.5t-94 44q33 20 54 38.5 t44 41.5q98 98 149.5 235.5t51.5 335.5q0 166 -35 293t-103 226q-66 94 -175 156.5t-269 62.5q-162 0 -281 -70q-141 -82 -214.5 -251t-73.5 -402zM332 733q0 135 17.5 230.5t56.5 166.5q37 68 110.5 110t165.5 42q63 0 112.5 -17.5t85 -45t59.5 -62.5t38 -67 q29 -72 44 -170.5t15 -239.5q0 -160 -22.5 -260.5t-69.5 -165.5q-86 -125 -250 -125q-78 0 -145.5 30.5t-112.5 88.5q-47 61 -75.5 186t-28.5 299z" />
<glyph unicode="R" horiz-adv-x="1138" d="M174 0h197v625q45 -2 71.5 -17.5t55.5 -46.5q37 -43 63.5 -77.5t53 -72.5t56 -86.5t70.5 -115.5q20 -37 36 -62.5t28 -48.5l24 -45q13 -22 29 -53h240q-10 16 -36 55t-55.5 87t-60.5 97.5t-53 86.5q-35 55 -65.5 100t-53.5 74q-18 25 -46 57.5t-77 73.5h21q76 -1 137 25 q70 30 119 83.5t74.5 125t25.5 153.5q0 104 -39 175t-86 116q-51 47 -128 74.5t-206 27.5h-395v-1411zM371 758v491h147q55 0 98 -7t74 -19q59 -23 95 -78t36 -129q0 -61 -18.5 -110.5t-50.5 -80.5q-37 -35 -93.5 -51t-150.5 -16h-137z" />
<glyph unicode="S" horiz-adv-x="1191" d="M102 98q207 -125 455 -125q139 0 239.5 41t166 104.5t96.5 141.5t31 152q0 82 -28 146.5t-74 113.5t-109.5 82.5t-133.5 54.5l-165 49q-117 35 -163 81t-46 122q0 98 68.5 155.5t187.5 57.5q88 0 162.5 -25.5t173.5 -85.5l88 140q-94 66 -205 99.5t-228 33.5 q-104 0 -190 -30t-147.5 -84t-95 -129t-33.5 -167q0 -152 87 -234.5t246 -129.5l148 -44q233 -68 233 -239q0 -117 -82 -181.5t-223 -64.5q-106 0 -197.5 30t-183.5 87z" />
<glyph unicode="T" horiz-adv-x="948" d="M41 1247h367v-1247h194v1247h367l20 164h-948v-164z" />
<glyph unicode="U" horiz-adv-x="1277" d="M164 426q0 -55 2 -92t7 -64.5t13.5 -49t22.5 -46.5q106 -197 426 -197q82 0 145.5 13.5t112.5 37t85 53.5t62 62q25 29 39.5 53.5t22.5 57.5t10 76.5t2 111.5v969h-196v-940q0 -170 -52 -233q-72 -92 -229 -93q-86 0 -140.5 22.5t-82.5 57.5q-16 18 -26.5 49t-15.5 68 t-7.5 78t-2.5 80v911h-198v-985z" />
<glyph unicode="V" d="M10 1411l471 -1415h193l479 1415h-205l-276 -848q-18 -59 -31.5 -102t-26.5 -86q-10 -39 -17 -61.5t-11 -45.5h-13q-4 23 -9 47.5t-13 59.5q-10 47 -25.5 98t-27.5 88l-271 850h-217z" />
<glyph unicode="W" horiz-adv-x="1650" d="M20 1411l334 -1415h244l152 719q12 55 23 114.5t20.5 113.5t16.5 99t11 72h13q8 -66 25.5 -172t45.5 -235l156 -711h242l327 1415h-205l-149 -715q-12 -53 -25.5 -119.5t-25 -130t-19.5 -118t-12 -84.5h-12q-2 23 -9.5 68.5t-17.5 104t-22.5 122t-24.5 123.5l-162 749 h-227l-164 -745q-27 -123 -46.5 -238t-31.5 -190h-12q-10 66 -26.5 179t-49.5 267l-156 727h-213z" />
<glyph unicode="X" horiz-adv-x="1122" d="M10 0h240l305 606l317 -606h240l-438 772l356 639h-235l-242 -479l-254 479h-240l377 -651z" />
<glyph unicode="Y" horiz-adv-x="1040" d="M-31 1411l447 -846v-565h205v561l450 850h-229l-238 -483q-23 -47 -43 -92t-39 -88q-16 47 -35.5 92t-42.5 90l-233 481h-242z" />
<glyph unicode="Z" horiz-adv-x="1054" d="M82 0h842l49 164h-627q-16 0 -33 -2q18 31 42 62.5t46 72.5l564 956v158h-811l-48 -164h484q100 0 162 6q-23 -29 -50.5 -66.5t-50.5 -78.5l-569 -956v-152z" />
<glyph unicode="[" horiz-adv-x="573" d="M174 -317h358v131h-188v1554h188v133h-358v-1818z" />
<glyph unicode="\" horiz-adv-x="806" d="M20 1491l611 -1585l155 55l-610 1585z" />
<glyph unicode="]" horiz-adv-x="573" d="M41 -186v-131h358v1818h-358v-133h188v-1554h-188z" />
<glyph unicode="^" horiz-adv-x="1257" d="M123 614h186l320 656l321 -656h185l-416 836h-180z" />
<glyph unicode="_" horiz-adv-x="1024" d="M0 -154v-102h1024v102h-1024z" />
<glyph unicode="`" horiz-adv-x="686" d="M92 1362l445 -209l57 111l-412 272z" />
<glyph unicode="a" horiz-adv-x="1052" d="M102 270q0 -147 89.5 -224t242.5 -77q68 0 117 16.5t85 39t57.5 45t31.5 34.5q37 -108 137 -147l96 127q-31 18 -47 39.5t-24 50.5t-10.5 67t-2.5 91q0 55 1.5 111.5t3.5 106.5t3 92t1 71q0 74 -4.5 110.5t-16.5 69.5q-29 82 -106.5 123t-190.5 41q-74 0 -136 -13.5 t-115.5 -34t-97.5 -44t-81 -43.5l86 -136q63 47 148.5 82t167.5 35q53 0 84.5 -14.5t48 -41t21.5 -64.5t5 -83v-67q-10 2 -20 2h-51q-252 0 -387.5 -92t-135.5 -273zM309 285q0 51 12.5 82.5t40.5 66.5q31 35 96.5 54.5t172.5 19.5q12 0 25 -1t36 -3l-6 -262 q-35 -61 -92 -98.5t-123 -37.5q-78 0 -120 46.5t-42 132.5z" />
<glyph unicode="b" horiz-adv-x="1138" d="M141 1466q16 -43 24.5 -101t8.5 -144v-981q0 -100 -6 -151.5t-21 -88.5h179q12 25 16 45.5t14 69.5q47 -66 117 -100.5t148 -34.5q125 0 221 77q92 72 138 192.5t46 280.5q0 246 -104.5 384.5t-290.5 138.5q-78 0 -141.5 -26t-127.5 -89l-6 4q4 10 5 42t1 65v237 q0 68 -5 116t-15 105zM362 250v520q16 20 25.5 31.5t38.5 32.5q41 29 78 42t84 13q125 0 182 -107q12 -25 20.5 -47t13.5 -50t7 -63.5t2 -86.5q0 -119 -16.5 -189t-41 -113t-71.5 -67.5t-100 -24.5q-68 0 -126.5 33t-95.5 76z" />
<glyph unicode="c" horiz-adv-x="927" d="M113 504q0 -117 23.5 -208t74.5 -163q105 -153 327 -153h3q98 0 169.5 30.5t145.5 102.5l-92 116q-94 -106 -213 -106q-90 0 -148 61q-41 43 -61 114t-20 181q0 205 51 314.5t178 109.5q49 0 89 -17.5t91 -62.5l98 129q-59 53 -125.5 81t-152.5 28q-150 0 -266 -105 q-74 -66 -123 -172t-49 -280z" />
<glyph unicode="d" horiz-adv-x="1136" d="M113 504q0 -246 108.5 -383t306.5 -137q158 0 265 112q4 -39 7 -56t11 -40h180q-16 47 -22 133t-6 211v1131l-189 30v-399q0 -53 2 -105.5t2 -74.5q-53 63 -114.5 90.5t-135.5 27.5q-106 0 -200 -59q-104 -68 -159.5 -191.5t-55.5 -289.5zM324 506q0 100 12 165.5 t41 116.5q29 49 74 77t104 28q72 0 124 -24.5t93 -71.5v-537q-27 -47 -81 -83t-136 -36q-98 0 -152 54q-20 20 -35.5 43.5t-24.5 58.5t-14 85t-5 124z" />
<glyph unicode="e" horiz-adv-x="1040" d="M113 520q0 -127 31.5 -227t91 -170t144.5 -108t191 -38q205 0 355 132l-72 112q-111 -98 -252 -98q-74 0 -134 29.5t-101 91.5q-43 70 -43 205v24h624v33q0 88 -7 155.5t-22.5 120t-39 92t-56.5 74.5q-109 111 -278 111q-190 0 -309 -141q-66 -78 -94.5 -171.5 t-28.5 -226.5zM326 612q0 141 52 222t163 81q49 0 86 -20.5t61 -50.5q64 -78 64 -232h-426z" />
<glyph unicode="f" horiz-adv-x="614" d="M76 893h98v-893h191v893h221l49 133h-273v166q0 78 36 121t102 43q35 0 66.5 -11.5t66.5 -27.5l63 123q-47 29 -103 42t-120 13q-117 0 -186 -49q-41 -29 -78 -90.5t-37 -165.5v-82q0 -27 1 -50.5t3 -31.5h-100v-133z" />
<glyph unicode="g" horiz-adv-x="1087" d="M102 -117q0 -129 117 -199.5t334 -70.5q94 0 173 20.5t136.5 62.5t90 103.5t32.5 145.5q0 59 -21.5 111.5t-65.5 90t-114.5 59t-169.5 21.5h-157q-74 0 -74 52q0 16 16.5 33.5t41 31.5t52 26.5t52.5 20.5q100 0 170.5 29t114.5 75t63.5 102t19.5 112q0 49 -16 93t-57 95 q37 -10 51 -13t37 -3q47 0 87 13t83 48l-97 117q-41 -29 -80.5 -44.5t-86.5 -15.5q-35 0 -74 10.5t-80 22.5q-47 14 -83 18.5t-77 4.5q-88 0 -160.5 -24.5t-124 -70t-80 -109t-28.5 -140.5q0 -106 61.5 -183t180.5 -112q-88 -33 -144.5 -71t-56.5 -109q0 -57 38 -93.5 t105 -44.5q29 -4 84.5 -7t108.5 -3q154 0 218 -41t64 -115q0 -82 -61 -129t-190 -47q-248 0 -248 164q0 23 6 44.5t12 33.5l-184 -10q-8 -23 -13.5 -47.5t-5.5 -57.5zM330 711q0 196 184 196h2h2q187 0 187 -192q0 -195 -187 -195q-188 0 -188 191z" />
<glyph unicode="h" horiz-adv-x="1142" d="M152 1462q10 -45 16 -97t6 -118v-1247h191v737q59 70 132.5 110t139.5 40q37 0 67.5 -11.5t45.5 -27.5q34 -34 34 -137v-6v-705h185v731q0 70 -4 100.5t-17 65.5q-23 70 -94.5 112t-163.5 42q-57 0 -111.5 -16.5t-111.5 -53.5q-31 -20 -52.5 -36.5t-56.5 -47.5 q6 80 7 137v230q0 76 -6.5 133t-16.5 104z" />
<glyph unicode="i" horiz-adv-x="542" d="M139 1341q0 -55 38 -95t93 -40q57 0 97.5 40t40.5 95q0 59 -40 98.5t-96 39.5q-55 0 -94 -40t-39 -98zM174 0h195v1051l-195 -31v-1020z" />
<glyph unicode="j" horiz-adv-x="542" d="M29 -307l84 -115q59 27 103 63.5t77 77.5q27 37 51.5 107t24.5 197v1028l-195 -41v-985q0 -100 -19.5 -172t-60.5 -111q-16 -14 -32.5 -26.5t-32.5 -22.5zM133 1354q0 -57 38 -96t95 -39q55 0 95 40t40 99q0 53 -39.5 93t-95.5 40q-55 0 -94 -40t-39 -97z" />
<glyph unicode="k" horiz-adv-x="1040" d="M147 1458q12 -45 19.5 -100t7.5 -133v-1225h188v1278q0 63 -7 123.5t-17 101.5zM383 584l422 -584h235l-456 592l366 436h-229z" />
<glyph unicode="l" horiz-adv-x="540" d="M152 1460q12 -59 17 -122.5t5 -172.5v-929q0 -76 8 -111t31 -68q29 -41 66.5 -59t93.5 -18h5q58 0 111 22l-32 117q-11 -3 -22 -3q-25 0 -42 17q-16 14 -21 42t-5 110v923q0 98 -2.5 170t-16.5 123z" />
<glyph unicode="m" horiz-adv-x="1630" d="M137 1010q10 -27 17.5 -50.5t11.5 -51t6 -63.5t2 -91v-754h186v770q66 63 124.5 91t111.5 28q72 0 99.5 -36t27.5 -122v-731h184v754q59 59 113.5 99t126.5 40q66 0 94.5 -35t28.5 -123v-735h186v766q0 141 -69.5 215t-192.5 74q-160 0 -313 -162q-39 86 -105.5 124 t-138.5 38t-147.5 -38t-141.5 -108q0 90 -35 144z" />
<glyph unicode="n" horiz-adv-x="1112" d="M135 1008q10 -29 17.5 -52.5t12.5 -51t7 -61.5t2 -79v-764h186v760q55 55 126 93t128 38q74 0 105 -41q18 -25 25.5 -56.5t7.5 -101.5v-692h186v776q0 74 -25 129q-29 66 -94 106t-147 40q-47 0 -96.5 -12.5t-94.5 -39.5q-33 -18 -60.5 -40.5t-72.5 -59.5q0 47 -8 84 t-27 74z" />
<glyph unicode="o" horiz-adv-x="1095" d="M102 514q0 -125 31 -225.5t88.5 -171t140 -108.5t185.5 -38q100 0 183 38t141.5 106.5t90 167t31.5 221.5q0 117 -27.5 217t-84 174t-141.5 117t-197 43q-102 0 -183 -38t-138.5 -108.5t-88.5 -170t-31 -224.5zM311 535q0 197 54.5 285.5t177.5 88.5q55 0 99 -20.5 t76 -67.5t48 -126.5t16 -198.5q0 -201 -62.5 -290t-168.5 -89q-59 0 -104.5 21.5t-75 70.5t-45 129t-15.5 197z" />
<glyph unicode="p" horiz-adv-x="1134" d="M152 1026q10 -49 16 -104.5t6 -147.5v-1206l184 43v420q0 16 -1 29.5t-3 25.5q119 -106 267 -106q98 0 172.5 40.5t126 114.5t77 174t25.5 221q0 131 -30.5 229.5t-83 164t-123 97.5t-148.5 32q-82 0 -156.5 -36t-134.5 -108q0 66 -3 95.5t-9 52.5zM358 244v522 q109 127 246 127q121 0 168 -101.5t47 -283.5q0 -190 -58.5 -283.5t-182.5 -93.5q-57 0 -114.5 31t-105.5 82z" />
<glyph unicode="q" horiz-adv-x="1134" d="M113 494q0 -131 33.5 -227.5t90 -159t129 -93t150.5 -30.5t141.5 29.5t124.5 95.5v-35q0 -25 -1 -50.5t-1 -46.5v-405l181 45v1131q0 92 7 168.5t17 117.5h-170q-8 -18 -12 -42.5t-6 -71.5q-55 72 -127 106.5t-152 34.5q-197 0 -301 -151.5t-104 -415.5zM315 530 q0 174 56.5 271.5t179.5 97.5q66 0 127 -34t100 -91v-495q-35 -61 -93 -99.5t-126 -38.5q-55 0 -100 19.5t-77 64.5t-49.5 120t-17.5 185z" />
<glyph unicode="r" horiz-adv-x="694" d="M135 1010q18 -47 28.5 -104.5t10.5 -151.5v-754h188v662q0 43 17.5 80.5t46.5 66.5t67.5 45t81.5 16q16 0 28 -3t26 -7l65 189q-31 10 -63 10q-158 0 -279 -178v18q0 39 -10 84t-25 74z" />
<glyph unicode="s" horiz-adv-x="970" d="M92 80q92 -53 190.5 -81t192.5 -28q88 0 163 24.5t128 71t83 108.5t30 140q0 104 -62.5 179t-204.5 108l-133 31q-82 18 -113.5 51t-31.5 88q0 70 48 112t130 42q61 0 120.5 -19.5t131.5 -54.5l63 133q-63 37 -146 60.5t-177 23.5q-84 0 -151.5 -23.5t-117 -65.5 t-76 -101.5t-26.5 -128.5q0 -236 250 -285l125 -25q92 -16 132 -56t40 -105q0 -76 -52.5 -121t-138.5 -45t-171 30.5t-158 71.5z" />
<glyph unicode="t" horiz-adv-x="653" d="M51 893h123v-662q0 -55 6 -90t16.5 -56.5t23.5 -34.5t30 -27q25 -23 74 -37.5t100 -14.5q100 0 186 43l-22 115q-43 -20 -96 -20q-78 0 -106 34.5t-28 130.5v619h203l51 133h-250q0 39 1.5 82t4.5 84t6 77t7 64l-195 -45q-8 -59 -10 -131t-2 -131h-123v-133z" />
<glyph unicode="u" horiz-adv-x="1110" d="M164 291q0 -55 5 -98t19 -74q33 -72 106 -113t171 -41q188 0 309 148q14 -53 35.5 -86t60.5 -62l129 103q-63 51 -63 213v772l-186 -37v-737q-33 -68 -98.5 -115t-135.5 -47q-35 0 -66.5 13t-52.5 32q-29 27 -38 64.5t-9 115.5v715l-186 -37v-729z" />
<glyph unicode="v" horiz-adv-x="937" d="M10 1022l367 -1030h176l375 1034h-199l-194 -590q-23 -63 -37.5 -120.5t-24.5 -104.5h-4q-12 53 -28.5 110.5t-32.5 110.5l-203 621z" />
<glyph unicode="w" horiz-adv-x="1419" d="M31 1018l280 -1026h181l153 571q6 20 15.5 59.5t18.5 77t15 64.5l6 29h7l6 -29q8 -27 18 -66t21.5 -79.5t17.5 -67.5l150 -559h182l287 1034h-197l-127 -561q-6 -25 -13.5 -67t-15.5 -80.5t-14 -67.5l-4 -29h-8l-6 23q-4 25 -12.5 61.5t-18.5 80.5t-21 85l-143 555h-195 l-155 -571q-10 -33 -18.5 -74t-14.5 -76t-10 -59l-4 -25h-6l-7 25q-4 25 -12 62.5t-17.5 81.5t-17.5 83l-131 576z" />
<glyph unicode="x" horiz-adv-x="966" d="M0 0h233q16 25 49 79t70 116.5t73 123t58 97.5q20 -37 54 -94.5t71 -119t71 -116.5t52 -86h236l-381 565l299 461h-219q-16 -29 -40 -71t-48.5 -88t-47.5 -91l-41 -82q-23 37 -50 85t-55 97.5t-52.5 92.5t-40.5 69l-213 -26l303 -447z" />
<glyph unicode="y" horiz-adv-x="960" d="M20 1010l228 -674q31 -92 54.5 -171t43.5 -171l74 10q-23 -78 -41.5 -124t-42.5 -77q-39 -47 -81 -74.5t-97 -41.5l59 -123q53 10 103.5 33.5t87.5 54.5q53 45 95 124.5t79 190.5l358 1059h-209l-182 -606q-23 -70 -40 -135.5t-30 -118.5h-12q-12 53 -31 123l-28 119 l-197 645z" />
<glyph unicode="z" horiz-adv-x="929" d="M82 0h700l66 135h-537l514 750v141h-702v-137h498l-539 -754v-135z" />
<glyph unicode="{" horiz-adv-x="663" d="M41 516q29 -2 62.5 -15.5t62.5 -38t48 -62.5t19 -91v-358q0 -68 19.5 -118t50.5 -84t72 -50t84 -16h164v149h-101q-41 0 -64.5 14.5t-35.5 38t-15.5 51t-3.5 56.5v352q0 72 -19 118t-49 71.5t-61.5 37t-56.5 13.5l2 14q23 4 54.5 16.5t60 40t49 72.5t20.5 113v354 q0 29 3.5 56.5t15.5 50t35.5 36t64.5 13.5h101v151h-164q-43 0 -83 -16.5t-72 -49t-51.5 -82.5t-19.5 -116v-363q0 -51 -19 -88.5t-48 -63.5t-62.5 -39t-62.5 -15v-152z" />
<glyph unicode="|" horiz-adv-x="514" d="M174 -424h166v1974h-166v-1974z" />
<glyph unicode="}" horiz-adv-x="663" d="M41 -168v-149h162q43 0 84 16t72.5 50t51 83t19.5 117v360q0 53 19.5 91t48 62.5t62.5 38t63 15.5v152q-29 2 -63 15t-62.5 39t-48 63.5t-19.5 88.5v361q0 68 -19.5 117t-52 82.5t-72.5 50t-81 16.5h-164v-151h98q39 0 63.5 -13.5t37 -36t16.5 -50t4 -56.5v-354 q0 -68 19.5 -112t48 -71.5t61.5 -41t57 -17.5v-14q-25 -2 -57.5 -13.5t-61 -37t-48 -71.5t-19.5 -120v-350q0 -29 -4 -56.5t-16.5 -51t-37 -38t-63.5 -14.5h-98z" />
<glyph unicode="~" horiz-adv-x="1171" d="M123 604l61 -135q29 53 70 96t104 43q57 0 113.5 -26.5t114.5 -53.5q53 -25 106 -46t109 -21q49 0 86 16.5t65.5 42t52.5 58t44 65.5l-62 135q-31 -53 -72 -97t-104 -44q-57 0 -112.5 27.5t-114.5 54.5q-55 25 -107.5 45t-105.5 20q-47 0 -85 -16t-67 -42t-52.5 -57.5 t-43.5 -64.5z" />
<glyph unicode="&#xa1;" horiz-adv-x="575" d="M154 934q0 -55 37.5 -95t93.5 -40q57 0 97 40t40 97t-40 96t-95 39t-94 -39t-39 -98zM170 -387l236 35l-48 979h-141z" />
<glyph unicode="&#xa2;" horiz-adv-x="944" d="M113 504q0 -117 27.5 -209t76.5 -162q88 -131 279 -149v-179h127v179q47 6 86 19t73 36q23 16 44 32.5t46 41.5l-94 114q-55 -76 -155 -100v770q35 -10 65.5 -26.5t59.5 -47.5l96 125q-47 41 -96.5 68.5t-124.5 36.5v170h-129v-170q-59 -10 -105.5 -31t-93.5 -61 q-78 -68 -130 -176.5t-52 -280.5zM315 492q0 98 13.5 162.5t38.5 117.5q16 37 52 74t77 53v-772q-86 27 -133.5 119t-47.5 246z" />
<glyph unicode="&#xa3;" horiz-adv-x="1187" d="M102 0h928v174h-508v494h326v151h-326v148q0 70 12.5 129t42 103t80 69.5t123.5 25.5q59 0 110.5 -24.5t98.5 -67.5l137 148q-74 68 -166 96.5t-190 28.5q-102 0 -187 -33t-144.5 -95.5t-92.5 -153.5t-33 -208v-166h-196v-151h196v-494h-211v-174z" />
<glyph unicode="&#xa4;" horiz-adv-x="915" d="M109 178l127 -84l83 131q61 -23 132 -22q80 0 135 20l84 -129l131 84l-92 133q39 43 55 98.5t16 133.5q0 104 -27.5 171.5t-60.5 90.5l86 129l-131 82l-76 -133q-57 20 -122 20q-63 0 -119 -16l-78 129l-139 -82l90 -129q-82 -92 -82 -250q0 -152 76 -244zM260 571 q0 104 42 162t144 58q115 0 156 -69t41 -187q0 -106 -45 -163t-141 -57q-104 0 -150.5 60.5t-46.5 195.5z" />
<glyph unicode="&#xa5;" horiz-adv-x="1101" d="M0 1413l332 -622h-264v-142h333l45 -82v-116h-378v-140h378v-311h205v311h398v140h-398v112l47 86h351v142h-279l332 622h-230l-237 -483q-23 -47 -43.5 -92t-38.5 -88q-16 47 -35.5 92t-42.5 90l-233 481h-242z" />
<glyph unicode="&#xa6;" horiz-adv-x="514" d="M174 418v-842h166v842h-166zM174 709h166v841h-166v-841z" />
<glyph unicode="&#xa7;" horiz-adv-x="1136" d="M113 -51q59 -133 172.5 -190.5t251.5 -57.5q78 0 156.5 20.5t142 64.5t103.5 110.5t40 158.5q0 82 -36 144.5t-101 109.5q82 43 132 111t50 160q0 70 -28.5 121t-72.5 89.5t-99.5 68.5t-108.5 56q-10 4 -40 18.5t-63.5 30t-63.5 30t-38 18.5q-102 47 -102 147q0 41 16 71 t43 49t61.5 28.5t69.5 9.5q66 0 123 -30t84 -93l180 100q-29 55 -72 92t-94 59.5t-108.5 33t-112.5 10.5q-74 0 -146.5 -20.5t-129 -61.5t-92 -103.5t-35.5 -146.5q0 -80 40.5 -139.5t114.5 -102.5q-98 -51 -151.5 -120.5t-53.5 -176.5q0 -86 38 -147t104 -102 q23 -14 54.5 -32t65 -35t67.5 -33.5t58 -28.5q39 -18 79 -37t72 -41.5t52.5 -52t20.5 -70.5q0 -45 -18.5 -77t-48.5 -51.5t-67.5 -28.5t-74.5 -9q-86 0 -154.5 39t-95.5 125zM338 659q0 66 44 103t97 59l164 -80q31 -14 62.5 -32.5t58.5 -42t44 -54t17 -69.5 q0 -53 -34.5 -99.5t-83.5 -68.5l-197 94q-31 14 -61.5 30.5t-55 38t-40 51t-15.5 70.5z" />
<glyph unicode="&#xa8;" horiz-adv-x="911" d="M123 1284q0 -53 35 -91t84 -38q51 0 85.5 38t34.5 91t-35.5 90t-84.5 37t-84 -37t-35 -90zM549 1284q0 -53 34.5 -91t86.5 -38q49 0 83.5 38t34.5 91t-35.5 90t-82.5 37q-51 0 -86 -37t-35 -90z" />
<glyph unicode="&#xa9;" horiz-adv-x="1734" d="M113 727q0 -160 59 -299t161.5 -242.5t240 -162t292.5 -58.5q154 0 292 58.5t240.5 162t163 242.5t60.5 299t-60.5 299t-163 242.5t-240.5 162t-292 58.5q-156 0 -293 -58.5t-239.5 -162t-161.5 -242.5t-59 -299zM260 727q0 135 47 251t129 202t192.5 135t237.5 49 q125 0 236.5 -49t193.5 -135t130.5 -202t48.5 -251q0 -133 -48.5 -250t-130.5 -203t-193.5 -136t-236.5 -50q-127 0 -237.5 50t-192.5 136t-129 203t-47 250zM510 715q0 -182 96 -303q100 -123 268 -123q134 0 234 76l-68 90q-68 -55 -151 -56q-61 0 -110.5 30t-78.5 91 q-16 35 -25 84t-9 127q0 147 45 223q59 102 170 103q76 0 145 -47l64 92q-37 33 -93.5 50t-117.5 17q-100 0 -183.5 -52t-130.5 -144q-55 -104 -55 -258z" />
<glyph unicode="&#xaa;" horiz-adv-x="829" d="M82 485h666v117h-666v-117zM98 985q0 -45 14.5 -88t45.5 -74q33 -31 77 -48t111 -17q92 0 158 47q14 10 26.5 20.5t36.5 38.5q14 -45 41 -72.5t62 -41.5l71 96q-41 27 -52 63.5t-9 112.5l6 281q2 59 -3 97t-26 75q-27 47 -82 72.5t-129 25.5q-59 0 -108 -10.5t-89 -25.5 t-71 -32.5t-55 -31.5l63 -105q43 33 93 53q86 35 145 35q63 0 96 -39q14 -16 18.5 -40.5t4.5 -71.5v-52h-58q-186 0 -286.5 -66.5t-100.5 -201.5zM250 995q0 76 41 117q27 25 75 39t128 14q20 0 45 -6l-2 -196q-29 -45 -72 -74t-92 -29q-123 0 -123 135z" />
<glyph unicode="&#xab;" horiz-adv-x="1034" d="M102 500l299 -453l127 86l-235 367l235 366l-127 88zM526 500l299 -453l127 86l-235 367l235 366l-127 88z" />
<glyph unicode="&#xac;" horiz-adv-x="1062" d="M113 434h651v-287h186v453h-837v-166z" />
<glyph unicode="&#xad;" horiz-adv-x="620" d="M102 461h416v186h-416v-186z" />
<glyph unicode="&#xae;" horiz-adv-x="1734" d="M113 727q0 -160 59 -299t161.5 -242.5t240 -162t292.5 -58.5q154 0 292 58.5t240.5 162t163 242.5t60.5 299t-60.5 299t-163 242.5t-240.5 162t-292 58.5q-156 0 -293 -58.5t-239.5 -162t-161.5 -242.5t-59 -299zM260 727q0 135 47 251t129 202t192.5 135t237.5 49 q125 0 236.5 -49t193.5 -135t130.5 -202t48.5 -251q0 -133 -48.5 -250t-130.5 -203t-193.5 -136t-236.5 -50q-127 0 -237.5 50t-192.5 136t-129 203t-47 250zM623 303h139v369q20 -2 31.5 -8.5t23.5 -18.5q35 -35 69 -83t77 -126l73 -133h168l-125 205q-18 27 -36.5 54.5 t-35 51t-31.5 41t-28 23.5q98 0 154.5 67.5t56.5 165.5q0 49 -16.5 94.5t-50 78t-86 52t-123.5 19.5h-260v-852zM762 770v270h78q94 0 133 -32.5t39 -98.5q0 -63 -39 -102q-20 -20 -51 -28.5t-86 -8.5h-74z" />
<glyph unicode="&#xaf;" horiz-adv-x="698" d="M61 1386h576v130h-576v-130z" />
<glyph unicode="&#xb0;" horiz-adv-x="835" d="M82 1079q0 -162 88 -255t248 -93q74 0 136 24.5t106.5 68.5t69 107.5t24.5 143.5q0 166 -89.5 258t-250.5 92q-150 0 -241 -93t-91 -253zM240 1087q0 221 176 222q92 0 136 -53.5t44 -188.5q0 -219 -176 -219q-90 0 -135 53t-45 186z" />
<glyph unicode="&#xb1;" horiz-adv-x="1005" d="M102 586h308v-291h186v291h307v176h-307v278h-186v-278h-308v-176zM106 63h793v177h-793v-177z" />
<glyph unicode="&#xb2;" horiz-adv-x="737" d="M82 1204l80 -86q43 29 88 54.5t100 25.5q49 0 82 -31.5t33 -87.5q0 -53 -37 -122.5t-133 -170.5q-53 -57 -103.5 -103t-91.5 -75v-96h521l34 127h-284q-12 0 -27.5 -1t-28.5 -1q23 18 50.5 44t54.5 52q37 37 76 78t69.5 86t51 94t20.5 105q0 104 -69.5 170.5t-180.5 66.5 q-78 0 -150.5 -30.5t-154.5 -98.5z" />
<glyph unicode="&#xb3;" horiz-adv-x="741" d="M82 1217l82 -93q53 37 98 57.5t94 20.5q55 0 85 -26.5t30 -69.5q0 -31 -12.5 -49.5t-32.5 -28.5t-47 -14t-53 -4h-93v-121h99q35 0 49 -3t31 -7q35 -10 55 -38t20 -65q0 -76 -55 -121q-47 -41 -105.5 -56t-136.5 -15q-25 0 -40 2t-60 10l39 -119q16 -2 27.5 -3t19.5 -1 h41q139 0 240 39q86 35 144 101.5t58 152.5q0 63 -35.5 108.5t-93.5 71.5q51 27 79 71t28 101q0 47 -20.5 87t-55.5 69t-83 44t-103 15q-78 0 -157 -32.5t-136 -83.5z" />
<glyph unicode="&#xb4;" horiz-adv-x="688" d="M92 1264l60 -111l444 209l-92 174z" />
<glyph unicode="&#xb6;" horiz-adv-x="1208" d="M61 1049q0 -80 31 -149t88.5 -119t136 -78.5t177.5 -28.5v-930h147v1581h248v-1581h145v1708h-510q-215 0 -339 -100.5t-124 -302.5z" />
<glyph unicode="&#xb7;" horiz-adv-x="575" d="M143 569q0 -63 42 -108t102 -45q59 0 102 45t43 108q0 66 -43 109t-102 43t-101.5 -43t-42.5 -109z" />
<glyph unicode="&#xb8;" horiz-adv-x="569" d="M102 -356q31 -16 75 -33t87 -17q49 0 87 15.5t63.5 40t39 56.5t13.5 63q0 55 -29.5 98t-109.5 53l26 90l-118 15l-39 -154l-2 -43q10 2 27.5 4t35.5 2q31 0 53.5 -16.5t22.5 -44.5q0 -29 -21.5 -45.5t-50.5 -16.5q-35 0 -59.5 8.5t-55.5 22.5z" />
<glyph unicode="&#xb9;" horiz-adv-x="655" d="M82 1145l39 -88q47 16 92 33.5t86 44.5v-496h-129v-127h403v127h-120v680h-111z" />
<glyph unicode="&#xba;" horiz-adv-x="829" d="M82 485h666v117h-666v-117zM82 1161q0 -190 89 -296.5t243 -106.5t242.5 105.5t88.5 289.5q0 86 -20 161t-62 130t-104.5 87t-148.5 32q-154 0 -241 -107.5t-87 -294.5zM248 1178q0 135 37 198.5t125 63.5q39 0 70.5 -13.5t53 -47t34 -90t12.5 -142.5q0 -141 -44 -203.5 t-120 -62.5q-43 0 -74 14t-52.5 49t-31.5 92.5t-10 141.5z" />
<glyph unicode="&#xbb;" horiz-adv-x="1034" d="M82 133l127 -86l299 453l-299 454l-127 -88l240 -366zM506 133l127 -86l299 453l-299 454l-127 -88l237 -366z" />
<glyph unicode="&#xbc;" horiz-adv-x="1955" d="M82 1145l39 -88q47 16 92 33.5t86 44.5v-496h-129v-127h403v127h-120v680h-111zM369 -313h149l1073 1878h-151zM1262 145h340q6 0 13 1t13 1q0 -6 -1 -13t-1 -11v-164l152 33v129q0 6 -1 14t-1 12l12 -2h86v127h-88l-12 -2q0 10 2 21.5t2 21.5v295l-129 -33l-17 -204 q-2 -29 -5 -53.5t1 -47.5l-12 2h-152l-26 -2q37 61 80 143.5t82.5 160t70.5 142t45 93.5h-168l-286 -559v-105z" />
<glyph unicode="&#xbd;" horiz-adv-x="1918" d="M82 1145l39 -88q47 16 92 33.5t86 44.5v-496h-129v-127h403v127h-120v680h-111zM328 -313h149l1073 1878h-151zM1264 692l79 -86q43 29 88.5 54.5t100.5 25.5q49 0 82 -31.5t33 -87.5q0 -53 -37 -122.5t-133 -170.5q-53 -57 -103.5 -103t-91.5 -75v-96h520l35 127h-285 q-12 0 -27.5 -1t-27.5 -1q23 18 50.5 44t54.5 52q37 37 75.5 78t69.5 86t51.5 94t20.5 105q0 104 -70 170.5t-180 66.5q-78 0 -150.5 -30.5t-154.5 -98.5z" />
<glyph unicode="&#xbe;" horiz-adv-x="2043" d="M82 1217l82 -93q53 37 98 57.5t94 20.5q55 0 85 -26.5t30 -69.5q0 -31 -12.5 -49.5t-32.5 -28.5t-47 -14t-53 -4h-93v-121h99q35 0 49 -3t31 -7q35 -10 55 -38t20 -65q0 -76 -55 -121q-47 -41 -105.5 -56t-136.5 -15q-25 0 -40 2t-60 10l39 -119q16 -2 27.5 -3t19.5 -1 h41q139 0 240 39q86 35 144 101.5t58 152.5q0 63 -35.5 108.5t-93.5 71.5q51 27 79 71t28 101q0 47 -20.5 87t-55.5 69t-83 44t-103 15q-78 0 -157 -32.5t-136 -83.5zM451 -313h149l1073 1878h-151zM1350 145h340q6 0 13 1t13 1q0 -6 -1 -13t-1 -11v-164l152 33v129 q0 6 -1 14t-1 12l12 -2h86v127h-88l-12 -2q0 10 2 21.5t2 21.5v295l-129 -33l-17 -204q-2 -29 -5 -53.5t1 -47.5l-12 2h-152l-26 -2q37 61 80 143.5t83 160t70.5 142t44.5 93.5h-168l-286 -559v-105z" />
<glyph unicode="&#xbf;" horiz-adv-x="892" d="M102 -76q0 -72 25 -130t70 -98t106.5 -61.5t132.5 -21.5q117 0 216.5 40t158.5 91l-82 125q-23 -20 -54.5 -36.5t-66.5 -29t-69.5 -19.5t-63.5 -7q-78 0 -131 45t-53 125q0 70 43 117t127 108q51 41 94 113.5t43 177.5q0 45 -7 78.5t-9 44.5h-162q8 -31 8 -103 q0 -74 -35 -134t-90 -101q-18 -12 -52 -37t-66.5 -65t-57.5 -95t-25 -127zM338 926q0 -59 41 -101.5t100 -42.5t101.5 42.5t42.5 101.5q0 61 -42 103t-102 42q-59 0 -100 -42t-41 -103z" />
<glyph unicode="&#xc0;" d="M0 0h205l123 399h489l125 -399h221l-454 1413h-246zM260 1690l445 -209l57 110l-412 273zM377 563q6 16 21.5 66.5t36 116t43 140.5t42 141.5t33.5 117.5t18 72h13q4 -20 18 -72.5t32.5 -119.5t41 -141.5t42 -140t35 -115t21.5 -65.5h-397z" />
<glyph unicode="&#xc1;" d="M0 0h205l123 399h489l125 -399h221l-454 1413h-246zM377 563q6 16 21.5 66.5t36 116t43 140.5t42 141.5t33.5 117.5t18 72h13q4 -20 18 -72.5t32.5 -119.5t41 -141.5t42 -140t35 -115t21.5 -65.5h-397zM410 1591l59 -110l444 209l-92 174z" />
<glyph unicode="&#xc2;" d="M0 0h205l123 399h489l125 -399h221l-454 1413h-246zM242 1575l65 -105l275 177l282 -177l74 105l-350 283zM377 563q6 16 21.5 66.5t36 116t43 140.5t42 141.5t33.5 117.5t18 72h13q4 -20 18 -72.5t32.5 -119.5t41 -141.5t42 -140t35 -115t21.5 -65.5h-397z" />
<glyph unicode="&#xc3;" d="M0 0h205l123 399h489l125 -399h221l-454 1413h-246zM221 1645l64 -107q31 35 59.5 56.5t75.5 21.5q45 0 73.5 -13.5t55 -30t57.5 -29.5t78 -13q88 0 140.5 36t101.5 99l-64 107q-31 -35 -60.5 -56.5t-76.5 -21.5q-45 0 -73.5 13t-55.5 28.5t-57.5 29t-77.5 13.5 q-88 0 -139.5 -34t-100.5 -99zM377 563q6 16 21.5 66.5t36 116t43 140.5t42 141.5t33.5 117.5t18 72h13q4 -20 18 -72.5t32.5 -119.5t41 -141.5t42 -140t35 -115t21.5 -65.5h-397z" />
<glyph unicode="&#xc4;" d="M0 0h205l123 399h489l125 -399h221l-454 1413h-246zM254 1612q0 -53 35 -91t84 -38q51 0 86 38t35 91t-36 90t-85 37t-84 -37t-35 -90zM377 563q6 16 21.5 66.5t36 116t43 140.5t42 141.5t33.5 117.5t18 72h13q4 -20 18 -72.5t32.5 -119.5t41 -141.5t42 -140t35 -115 t21.5 -65.5h-397zM678 1612q0 -53 35 -91t86 -38q49 0 84 38t35 91t-36 90t-83 37q-51 0 -86 -37t-35 -90z" />
<glyph unicode="&#xc5;" d="M0 0h205l123 399h489l125 -399h221l-454 1413h-246zM375 1679q0 -43 16.5 -83t44 -69.5t64.5 -47t80 -17.5t80.5 17.5t67.5 47t46.5 69.5t16.5 83q0 45 -16.5 84t-45.5 69t-65.5 47t-79.5 17t-81 -17t-66.5 -47t-45 -69t-16.5 -84zM377 563q6 16 21.5 66.5t36 116 t43 140.5t42 141.5t33.5 117.5t18 72h13q4 -20 18 -72.5t32.5 -119.5t41 -141.5t42 -140t35 -115t21.5 -65.5h-397zM459 1679q0 53 36.5 91t90.5 38q47 0 83 -38t36 -91t-37 -91t-88 -38q-49 0 -85 38t-36 91z" />
<glyph unicode="&#xc6;" horiz-adv-x="1746" d="M-20 0h217l237 401h463v-401h789v170h-588v481h452v166h-454v426h542l27 162h-831zM526 563q6 12 36 63.5t71 121t86 147.5t83 143.5t62 108.5l25 43l12 -4l-2 -33v-74q0 -39 -1 -75.5t-1 -45.5v-395h-371z" />
<glyph unicode="&#xc7;" horiz-adv-x="1167" d="M113 696q0 -324 166 -520q59 -68 129.5 -114t162.5 -68l-39 -150l17 -24q12 2 24.5 5t26.5 3q29 0 52.5 -15.5t23.5 -43.5q0 -27 -22.5 -43.5t-51.5 -16.5q-35 0 -59.5 8.5t-55.5 22.5l-45 -96q31 -16 76 -33t88 -17q49 0 87 15.5t63.5 39t39 54.5t13.5 61 q0 53 -30.5 96.5t-110.5 53.5l22 66q231 -1 395 118l-96 129q-68 -47 -130 -67.5t-132 -20.5q-111 0 -203 55.5t-141 172.5q-29 63 -40 138t-11 195q0 129 18.5 229.5t61.5 172.5q51 86 123.5 132t177.5 46q72 0 131 -19.5t119 -62.5l96 129q-68 53 -157 81t-189 28 q-166 0 -298 -84t-210 -238q-45 -86 -68.5 -190.5t-23.5 -227.5z" />
<glyph unicode="&#xc8;" horiz-adv-x="1026" d="M174 0h791v170h-590v483h452v166h-454v430h542l27 162h-768v-1411zM295 1690l444 -209l58 110l-412 273z" />
<glyph unicode="&#xc9;" horiz-adv-x="1026" d="M174 0h791v170h-590v483h452v166h-454v430h542l27 162h-768v-1411zM344 1591l59 -110l445 209l-92 174z" />
<glyph unicode="&#xca;" horiz-adv-x="1026" d="M174 0h791v170h-590v483h452v166h-454v430h542l27 162h-768v-1411zM227 1575l66 -105l274 177l283 -177l74 105l-351 283z" />
<glyph unicode="&#xcb;" horiz-adv-x="1026" d="M174 0h791v170h-590v483h452v166h-454v430h542l27 162h-768v-1411zM244 1612q0 -53 34.5 -91t83.5 -38q51 0 86 38t35 91t-35.5 90t-85.5 37q-49 0 -83.5 -37t-34.5 -90zM670 1612q0 -53 34.5 -91t86.5 -38q49 0 83.5 38t34.5 91t-35.5 90t-82.5 37q-51 0 -86 -37 t-35 -90z" />
<glyph unicode="&#xcc;" horiz-adv-x="548" d="M-51 1698l444 -209l58 110l-412 273zM174 0h201v1411h-201v-1411z" />
<glyph unicode="&#xcd;" horiz-adv-x="548" d="M109 1599l59 -110l444 209l-92 174zM174 0h201v1411h-201v-1411z" />
<glyph unicode="&#xce;" horiz-adv-x="548" d="M-74 1583l66 -104l274 176l283 -176l74 104l-351 283zM174 0h201v1411h-201v-1411z" />
<glyph unicode="&#xcf;" horiz-adv-x="548" d="M-57 1616q0 -53 34.5 -91t83.5 -38q51 0 86 38t35 91t-35.5 90t-85.5 37q-49 0 -83.5 -37t-34.5 -90zM174 0h201v1411h-201v-1411zM369 1616q0 -53 34.5 -91t85.5 -38q49 0 84 38t35 91t-35.5 90t-83.5 37q-51 0 -85.5 -37t-34.5 -90z" />
<glyph unicode="&#xd0;" horiz-adv-x="1267" d="M6 647h168v-647h352q184 0 293 49t182 141q72 88 113 214.5t41 300.5q0 299 -125 473q-96 133 -221 183t-307 50h-328v-623h-168v-141zM375 162v485h248l49 141h-297v465h160q104 0 170.5 -25.5t125.5 -99.5q63 -80 84 -190.5t21 -257.5q0 -104 -18.5 -196.5 t-57.5 -164.5q-47 -86 -127 -121.5t-203 -35.5h-155z" />
<glyph unicode="&#xd1;" horiz-adv-x="1288" d="M174 0h199l-8 741q-2 98 -5.5 199.5t-11.5 194.5l12 2q10 -31 28 -75t41.5 -94t50 -106.5t52.5 -111.5l371 -750h211v1411h-190l4 -692q0 -59 2 -126t5 -127t7 -106.5t6 -60.5l-12 -4q-4 14 -17.5 52t-34 87t-43 102.5t-44.5 96.5l-394 778h-229v-1411zM293 1645l63 -107 q31 35 59.5 56.5t76.5 21.5q45 0 73.5 -13.5t55 -30t57.5 -29.5t78 -13q88 0 140 36t101 99l-63 107q-31 -35 -60.5 -56.5t-76.5 -21.5q-45 0 -74 13t-55.5 28.5t-57 29t-78.5 13.5q-88 0 -139 -34t-100 -99z" />
<glyph unicode="&#xd2;" horiz-adv-x="1376" d="M113 711q0 -160 35.5 -294t108.5 -231.5t182.5 -153t254.5 -55.5q135 0 240.5 51.5t178.5 145.5t112 226t39 296q0 147 -32 281.5t-101.5 236t-180 162t-266.5 60.5q-129 0 -234.5 -48.5t-180 -140.5t-115.5 -227t-41 -309zM334 733q0 274 81 411.5t269 137.5 q100 0 168 -41t108.5 -117.5t59 -189.5t18.5 -256q0 -295 -90 -423t-254 -128q-104 0 -172.5 44t-110.5 124t-59.5 191.5t-17.5 246.5zM418 1690l444 -209l58 110l-412 273z" />
<glyph unicode="&#xd3;" horiz-adv-x="1376" d="M113 711q0 -160 35.5 -294t108.5 -231.5t182.5 -153t254.5 -55.5q135 0 240.5 51.5t178.5 145.5t112 226t39 296q0 147 -32 281.5t-101.5 236t-180 162t-266.5 60.5q-129 0 -234.5 -48.5t-180 -140.5t-115.5 -227t-41 -309zM334 733q0 274 81 411.5t269 137.5 q100 0 168 -41t108.5 -117.5t59 -189.5t18.5 -256q0 -295 -90 -423t-254 -128q-104 0 -172.5 44t-110.5 124t-59.5 191.5t-17.5 246.5zM461 1599l59 -110l445 209l-93 174z" />
<glyph unicode="&#xd4;" horiz-adv-x="1376" d="M113 711q0 -160 35.5 -294t108.5 -231.5t182.5 -153t254.5 -55.5q135 0 240.5 51.5t178.5 145.5t112 226t39 296q0 147 -32 281.5t-101.5 236t-180 162t-266.5 60.5q-129 0 -234.5 -48.5t-180 -140.5t-115.5 -227t-41 -309zM334 733q0 274 81 411.5t269 137.5 q100 0 168 -41t108.5 -117.5t59 -189.5t18.5 -256q0 -295 -90 -423t-254 -128q-104 0 -172.5 44t-110.5 124t-59.5 191.5t-17.5 246.5zM342 1575l66 -105l274 177l283 -177l73 105l-350 283z" />
<glyph unicode="&#xd5;" horiz-adv-x="1376" d="M113 711q0 -160 35.5 -294t108.5 -231.5t182.5 -153t254.5 -55.5q135 0 240.5 51.5t178.5 145.5t112 226t39 296q0 147 -32 281.5t-101.5 236t-180 162t-266.5 60.5q-129 0 -234.5 -48.5t-180 -140.5t-115.5 -227t-41 -309zM324 1645l63 -107q31 35 59.5 56.5t75.5 21.5 q45 0 74 -13.5t55.5 -30t57 -29.5t77.5 -13q88 0 140.5 36t101.5 99l-63 107q-31 -35 -61 -56.5t-77 -21.5q-45 0 -73.5 13t-55 28.5t-57.5 29t-78 13.5q-88 0 -139 -34t-100 -99zM334 733q0 274 81 411.5t269 137.5q100 0 168 -41t108.5 -117.5t59 -189.5t18.5 -256 q0 -295 -90 -423t-254 -128q-104 0 -172.5 44t-110.5 124t-59.5 191.5t-17.5 246.5z" />
<glyph unicode="&#xd6;" horiz-adv-x="1376" d="M113 711q0 -160 35.5 -294t108.5 -231.5t182.5 -153t254.5 -55.5q135 0 240.5 51.5t178.5 145.5t112 226t39 296q0 147 -32 281.5t-101.5 236t-180 162t-266.5 60.5q-129 0 -234.5 -48.5t-180 -140.5t-115.5 -227t-41 -309zM334 733q0 274 81 411.5t269 137.5 q100 0 168 -41t108.5 -117.5t59 -189.5t18.5 -256q0 -295 -90 -423t-254 -128q-104 0 -172.5 44t-110.5 124t-59.5 191.5t-17.5 246.5zM352 1612q0 -53 35 -91t84 -38q51 0 86 38t35 91t-36 90t-85 37t-84 -37t-35 -90zM776 1612q0 -53 35 -91t86 -38q49 0 84 38t35 91 t-36 90t-83 37q-51 0 -86 -37t-35 -90z" />
<glyph unicode="&#xd7;" horiz-adv-x="1157" d="M174 836l281 -281l-277 -274l127 -127l275 276l280 -280l123 122l-281 281l277 274l-127 127l-274 -276l-281 280z" />
<glyph unicode="&#xd8;" horiz-adv-x="1376" d="M113 709q0 -174 41 -311.5t133 -247.5l-154 -256l111 -66l137 235q133 -90 313 -90q100 0 177 26t149 85q123 98 183.5 243.5t60.5 366.5q0 111 -12.5 194t-35 149.5t-53 118.5t-67.5 101l141 238l-113 66l-125 -215q-66 41 -141.5 64.5t-173.5 23.5q-162 0 -281 -70 q-141 -82 -215.5 -251t-74.5 -404zM334 729q0 135 17.5 231.5t54.5 167.5q35 70 110.5 111t167.5 41q72 0 126 -22.5t97 -63.5l-516 -868q-57 166 -57 403zM469 205l516 864q27 -78 40 -171t13 -222q0 -164 -22.5 -262.5t-69.5 -165.5q-88 -125 -252 -125q-59 0 -120.5 22.5 t-104.5 59.5z" />
<glyph unicode="&#xd9;" horiz-adv-x="1277" d="M164 426q0 -55 2 -92t7 -64.5t13.5 -49t22.5 -46.5q106 -197 426 -197q82 0 145.5 13.5t112.5 37t85 53.5t62 62q25 29 39.5 53.5t22.5 57.5t10 76.5t2 111.5v969h-196v-940q0 -170 -52 -233q-72 -92 -229 -93q-86 0 -140.5 22.5t-82.5 57.5q-16 18 -26.5 49t-15.5 68 t-7.5 78t-2.5 80v911h-198v-985zM336 1690l444 -209l58 110l-412 273z" />
<glyph unicode="&#xda;" horiz-adv-x="1277" d="M164 426q0 -55 2 -92t7 -64.5t13.5 -49t22.5 -46.5q106 -197 426 -197q82 0 145.5 13.5t112.5 37t85 53.5t62 62q25 29 39.5 53.5t22.5 57.5t10 76.5t2 111.5v969h-196v-940q0 -170 -52 -233q-72 -92 -229 -93q-86 0 -140.5 22.5t-82.5 57.5q-16 18 -26.5 49t-15.5 68 t-7.5 78t-2.5 80v911h-198v-985zM406 1591l59 -110l444 209l-92 174z" />
<glyph unicode="&#xdb;" horiz-adv-x="1277" d="M164 426q0 -55 2 -92t7 -64.5t13.5 -49t22.5 -46.5q106 -197 426 -197q82 0 145.5 13.5t112.5 37t85 53.5t62 62q25 29 39.5 53.5t22.5 57.5t10 76.5t2 111.5v969h-196v-940q0 -170 -52 -233q-72 -92 -229 -93q-86 0 -140.5 22.5t-82.5 57.5q-16 18 -26.5 49t-15.5 68 t-7.5 78t-2.5 80v911h-198v-985zM297 1575l65 -105l275 177l283 -177l73 105l-350 283z" />
<glyph unicode="&#xdc;" horiz-adv-x="1277" d="M164 426q0 -55 2 -92t7 -64.5t13.5 -49t22.5 -46.5q106 -197 426 -197q82 0 145.5 13.5t112.5 37t85 53.5t62 62q25 29 39.5 53.5t22.5 57.5t10 76.5t2 111.5v969h-196v-940q0 -170 -52 -233q-72 -92 -229 -93q-86 0 -140.5 22.5t-82.5 57.5q-16 18 -26.5 49t-15.5 68 t-7.5 78t-2.5 80v911h-198v-985zM307 1612q0 -53 35 -91t84 -38q51 0 86 38t35 91t-36 90t-85 37t-84 -37t-35 -90zM733 1612q0 -53 35 -91t86 -38q49 0 84 38t35 91t-36 90t-83 37q-51 0 -86 -37t-35 -90z" />
<glyph unicode="&#xdd;" horiz-adv-x="1040" d="M-31 1411l447 -846v-565h205v561l450 850h-229l-238 -483q-23 -47 -43 -92t-39 -88q-16 47 -35.5 92t-42.5 90l-233 481h-242zM322 1599l59 -110l444 209l-92 174z" />
<glyph unicode="&#xde;" horiz-adv-x="1114" d="M174 0h197v346h233q113 0 178.5 22.5t118.5 63.5q94 72 133 157t39 206q0 229 -186 344q-29 18 -59.5 30.5t-68.5 20.5t-89.5 11t-118.5 3h-180v207h-197v-1411zM371 506v536h184q86 0 139.5 -17t89.5 -52q70 -68 70 -201q0 -59 -15.5 -104t-43.5 -82q-35 -43 -83 -61.5 t-120 -18.5h-221z" />
<glyph unicode="&#xdf;" horiz-adv-x="1181" d="M31 887h157l7 -641q0 -70 -12.5 -138.5t-22.5 -107.5h186q10 33 21.5 86t11.5 121l-4 782q0 57 2 124t31 118q49 90 163 90q80 0 127 -39q63 -45 64 -143q0 -59 -24.5 -97t-90.5 -73q-78 -41 -104.5 -78t-26.5 -86q0 -55 43 -97t100 -73q43 -23 74 -40t52.5 -33.5t37 -34 t27.5 -40.5q16 -29 25.5 -58.5t9.5 -70.5q0 -111 -62.5 -178t-167.5 -67q-29 0 -48 5t-54 15l-49 -127q68 -29 176 -29q74 0 131 16.5t111 53.5q78 55 123 137.5t45 186.5q0 199 -162 295q-43 25 -97.5 51t-99.5 49q-20 10 -34.5 24.5t-14.5 30.5t18.5 30.5t40.5 22.5 q53 18 87 40t63 51q78 72 78 180q0 70 -29 128t-80 100t-122.5 65.5t-157.5 23.5q-82 0 -154 -22.5t-119 -65.5q-31 -29 -53.5 -56.5t-37.5 -61t-22.5 -78.5t-7.5 -107v-45h-155v-139z" />
<glyph unicode="&#xe0;" horiz-adv-x="1052" d="M102 270q0 -147 89.5 -224t242.5 -77q68 0 117 16.5t85 39t57.5 45t31.5 34.5q37 -108 137 -147l96 127q-31 18 -47 39.5t-24 50.5t-10.5 67t-2.5 91q0 55 1.5 111.5t3.5 106.5t3 92t1 71q0 74 -4.5 110.5t-16.5 69.5q-29 82 -106.5 123t-190.5 41q-74 0 -136 -13.5 t-115.5 -34t-97.5 -44t-81 -43.5l86 -136q63 47 148.5 82t167.5 35q53 0 84.5 -14.5t48 -41t21.5 -64.5t5 -83v-67q-10 2 -20 2h-51q-252 0 -387.5 -92t-135.5 -273zM242 1362l444 -209l57 111l-411 272zM309 285q0 51 12.5 82.5t40.5 66.5q31 35 96.5 54.5t172.5 19.5 q12 0 25 -1t36 -3l-6 -262q-35 -61 -92 -98.5t-123 -37.5q-78 0 -120 46.5t-42 132.5z" />
<glyph unicode="&#xe1;" horiz-adv-x="1052" d="M102 270q0 -147 89.5 -224t242.5 -77q68 0 117 16.5t85 39t57.5 45t31.5 34.5q37 -108 137 -147l96 127q-31 18 -47 39.5t-24 50.5t-10.5 67t-2.5 91q0 55 1.5 111.5t3.5 106.5t3 92t1 71q0 74 -4.5 110.5t-16.5 69.5q-29 82 -106.5 123t-190.5 41q-74 0 -136 -13.5 t-115.5 -34t-97.5 -44t-81 -43.5l86 -136q63 47 148.5 82t167.5 35q53 0 84.5 -14.5t48 -41t21.5 -64.5t5 -83v-67q-10 2 -20 2h-51q-252 0 -387.5 -92t-135.5 -273zM309 285q0 51 12.5 82.5t40.5 66.5q31 35 96.5 54.5t172.5 19.5q12 0 25 -1t36 -3l-6 -262 q-35 -61 -92 -98.5t-123 -37.5q-78 0 -120 46.5t-42 132.5zM313 1264l60 -111l444 209l-92 174z" />
<glyph unicode="&#xe2;" horiz-adv-x="1052" d="M102 270q0 -147 89.5 -224t242.5 -77q68 0 117 16.5t85 39t57.5 45t31.5 34.5q37 -108 137 -147l96 127q-31 18 -47 39.5t-24 50.5t-10.5 67t-2.5 91q0 55 1.5 111.5t3.5 106.5t3 92t1 71q0 74 -4.5 110.5t-16.5 69.5q-29 82 -106.5 123t-190.5 41q-74 0 -136 -13.5 t-115.5 -34t-97.5 -44t-81 -43.5l86 -136q63 47 148.5 82t167.5 35q53 0 84.5 -14.5t48 -41t21.5 -64.5t5 -83v-67q-10 2 -20 2h-51q-252 0 -387.5 -92t-135.5 -273zM184 1247l66 -104l274 176l283 -176l74 104l-351 283zM309 285q0 51 12.5 82.5t40.5 66.5q31 35 96.5 54.5 t172.5 19.5q12 0 25 -1t36 -3l-6 -262q-35 -61 -92 -98.5t-123 -37.5q-78 0 -120 46.5t-42 132.5z" />
<glyph unicode="&#xe3;" horiz-adv-x="1052" d="M102 270q0 -147 89.5 -224t242.5 -77q68 0 117 16.5t85 39t57.5 45t31.5 34.5q37 -108 137 -147l96 127q-31 18 -47 39.5t-24 50.5t-10.5 67t-2.5 91q0 55 1.5 111.5t3.5 106.5t3 92t1 71q0 74 -4.5 110.5t-16.5 69.5q-29 82 -106.5 123t-190.5 41q-74 0 -136 -13.5 t-115.5 -34t-97.5 -44t-81 -43.5l86 -136q63 47 148.5 82t167.5 35q53 0 84.5 -14.5t48 -41t21.5 -64.5t5 -83v-67q-10 2 -20 2h-51q-252 0 -387.5 -92t-135.5 -273zM156 1317l63 -107q31 35 59.5 56.5t75.5 21.5q45 0 74 -13t55.5 -29.5t57 -30t77.5 -13.5q88 0 140.5 36 t101.5 99l-63 107q-31 -35 -60.5 -56.5t-77.5 -21.5q-45 0 -73.5 13.5t-55 28.5t-57.5 28.5t-78 13.5q-88 0 -139 -34t-100 -99zM309 285q0 51 12.5 82.5t40.5 66.5q31 35 96.5 54.5t172.5 19.5q12 0 25 -1t36 -3l-6 -262q-35 -61 -92 -98.5t-123 -37.5q-78 0 -120 46.5 t-42 132.5z" />
<glyph unicode="&#xe4;" horiz-adv-x="1052" d="M102 270q0 -147 89.5 -224t242.5 -77q68 0 117 16.5t85 39t57.5 45t31.5 34.5q37 -108 137 -147l96 127q-31 18 -47 39.5t-24 50.5t-10.5 67t-2.5 91q0 55 1.5 111.5t3.5 106.5t3 92t1 71q0 74 -4.5 110.5t-16.5 69.5q-29 82 -106.5 123t-190.5 41q-74 0 -136 -13.5 t-115.5 -34t-97.5 -44t-81 -43.5l86 -136q63 47 148.5 82t167.5 35q53 0 84.5 -14.5t48 -41t21.5 -64.5t5 -83v-67q-10 2 -20 2h-51q-252 0 -387.5 -92t-135.5 -273zM184 1284q0 -53 35 -91t84 -38q51 0 86 38t35 91t-36 90t-85 37t-84 -37t-35 -90zM309 285q0 51 12.5 82.5 t40.5 66.5q31 35 96.5 54.5t172.5 19.5q12 0 25 -1t36 -3l-6 -262q-35 -61 -92 -98.5t-123 -37.5q-78 0 -120 46.5t-42 132.5zM610 1284q0 -53 35 -91t86 -38q49 0 84 38t35 91t-36 90t-83 37q-51 0 -86 -37t-35 -90z" />
<glyph unicode="&#xe5;" horiz-adv-x="1052" d="M102 270q0 -147 89.5 -224t242.5 -77q68 0 117 16.5t85 39t57.5 45t31.5 34.5q37 -108 137 -147l96 127q-31 18 -47 39.5t-24 50.5t-10.5 67t-2.5 91q0 55 1.5 111.5t3.5 106.5t3 92t1 71q0 74 -4.5 110.5t-16.5 69.5q-29 82 -106.5 123t-190.5 41q-74 0 -136 -13.5 t-115.5 -34t-97.5 -44t-81 -43.5l86 -136q63 47 148.5 82t167.5 35q53 0 84.5 -14.5t48 -41t21.5 -64.5t5 -83v-67q-10 2 -20 2h-51q-252 0 -387.5 -92t-135.5 -273zM309 285q0 51 12.5 82.5t40.5 66.5q31 35 96.5 54.5t172.5 19.5q12 0 25 -1t36 -3l-6 -262 q-35 -61 -92 -98.5t-123 -37.5q-78 0 -120 46.5t-42 132.5zM322 1352q0 -43 16 -83t44 -70t64.5 -47t79.5 -17t81 17t68 47t46 70t16 83q0 45 -16 84t-45 68.5t-66 47t-80 17.5t-80.5 -17.5t-66.5 -47t-45 -68.5t-16 -84zM406 1352q0 53 36.5 91t89.5 38q47 0 83 -38t36 -91 t-36.5 -91t-88.5 -38q-49 0 -84.5 37.5t-35.5 91.5z" />
<glyph unicode="&#xe6;" horiz-adv-x="1599" d="M92 272q2 -61 20.5 -116.5t58.5 -97.5t101.5 -65.5t151.5 -21.5q57 0 114.5 17.5t104.5 50.5q27 16 57.5 41.5t61.5 66.5q10 -27 41 -56.5t76 -55t101 -42t118 -16.5q221 0 364 132l-69 112q-111 -98 -254 -98q-72 0 -133.5 29.5t-100.5 91.5q-43 70 -43 205v24h625v33 q0 170 -31 272.5t-94 169.5q-57 59 -126 85t-149 26q-86 0 -153.5 -33t-124.5 -90q-43 55 -105.5 88t-148.5 33q-78 0 -145.5 -15.5t-123 -37t-96 -45t-65.5 -37.5l86 -136q66 49 150.5 83t164.5 34q51 0 83 -13t49.5 -38t22.5 -58.5t5 -72.5v-90q-29 0 -43 1t-33 1 q-252 0 -385 -90t-133 -271zM299 287q0 96 53 149q35 35 98.5 53.5t170.5 18.5q12 0 25.5 -2t33.5 -2l-4 -260q-35 -61 -92.5 -98t-122.5 -37q-78 0 -120 46t-42 132zM862 612q0 154 57.5 228.5t157.5 74.5q98 0 154.5 -78t56.5 -225h-426z" />
<glyph unicode="&#xe7;" horiz-adv-x="927" d="M113 504q0 -231 98 -369q76 -106 213 -141l-39 -150l18 -24q10 4 18.5 6t31.5 2q31 0 53 -15.5t22 -43.5q0 -27 -21.5 -43.5t-49.5 -16.5q-35 0 -59.5 8.5t-55.5 22.5l-45 -98q31 -16 75 -32t87 -16q100 0 151.5 53.5t51.5 116.5q0 53 -30 96.5t-108 53.5l17 66 q133 0 229 63q23 16 43 31.5t43 40.5l-92 114q-41 -45 -95.5 -74.5t-117.5 -29.5q-86 0 -148 61q-82 82 -81 293q0 106 11 183t38 131q25 53 73 80.5t107 27.5q49 0 89 -17.5t91 -60.5l98 127q-25 23 -45 37t-47 29q-39 20 -86 31.5t-100 11.5q-145 0 -266 -103 q-74 -66 -123 -172t-49 -280z" />
<glyph unicode="&#xe8;" horiz-adv-x="1040" d="M113 520q0 -127 31.5 -227t91 -170t144.5 -108t191 -38q205 0 355 132l-72 112q-111 -98 -252 -98q-74 0 -134 29.5t-101 91.5q-43 70 -43 205v24h624v33q0 88 -7 155.5t-22.5 120t-39 92t-56.5 74.5q-109 111 -278 111q-190 0 -309 -141q-66 -78 -94.5 -171.5 t-28.5 -226.5zM266 1362l445 -209l57 111l-412 272zM326 612q0 141 52 222t163 81q49 0 86 -20.5t61 -50.5q64 -78 64 -232h-426z" />
<glyph unicode="&#xe9;" horiz-adv-x="1040" d="M113 520q0 -127 31.5 -227t91 -170t144.5 -108t191 -38q205 0 355 132l-72 112q-111 -98 -252 -98q-74 0 -134 29.5t-101 91.5q-43 70 -43 205v24h624v33q0 88 -7 155.5t-22.5 120t-39 92t-56.5 74.5q-109 111 -278 111q-190 0 -309 -141q-66 -78 -94.5 -171.5 t-28.5 -226.5zM326 612q0 141 52 222t163 81q49 0 86 -20.5t61 -50.5q64 -78 64 -232h-426zM326 1264l59 -111l444 209l-92 174z" />
<glyph unicode="&#xea;" horiz-adv-x="1040" d="M113 520q0 -127 31.5 -227t91 -170t144.5 -108t191 -38q205 0 355 132l-72 112q-111 -98 -252 -98q-74 0 -134 29.5t-101 91.5q-43 70 -43 205v24h624v33q0 88 -7 155.5t-22.5 120t-39 92t-56.5 74.5q-109 111 -278 111q-190 0 -309 -141q-66 -78 -94.5 -171.5 t-28.5 -226.5zM205 1247l65 -104l275 176l282 -176l74 104l-350 283zM326 612q0 141 52 222t163 81q49 0 86 -20.5t61 -50.5q64 -78 64 -232h-426z" />
<glyph unicode="&#xeb;" horiz-adv-x="1040" d="M113 520q0 -127 31.5 -227t91 -170t144.5 -108t191 -38q205 0 355 132l-72 112q-111 -98 -252 -98q-74 0 -134 29.5t-101 91.5q-43 70 -43 205v24h624v33q0 88 -7 155.5t-22.5 120t-39 92t-56.5 74.5q-109 111 -278 111q-190 0 -309 -141q-66 -78 -94.5 -171.5 t-28.5 -226.5zM231 1284q0 -53 35 -91t84 -38q51 0 86 38t35 91t-36 90t-85 37t-84 -37t-35 -90zM326 612q0 141 52 222t163 81q49 0 86 -20.5t61 -50.5q64 -78 64 -232h-426zM657 1284q0 -53 35 -91t86 -38q49 0 84 38t35 91t-36 90t-83 37q-51 0 -86 -37t-35 -90z" />
<glyph unicode="&#xec;" horiz-adv-x="542" d="M-51 1362l444 -209l58 111l-412 272zM174 0h195v1051l-195 -31v-1020z" />
<glyph unicode="&#xed;" horiz-adv-x="542" d="M113 1264l59 -111l444 209l-92 174zM174 0h195v1051l-195 -31v-1020z" />
<glyph unicode="&#xee;" horiz-adv-x="542" d="M-74 1247l66 -104l274 176l283 -176l74 104l-351 283zM174 0h195v1051l-195 -31v-1020z" />
<glyph unicode="&#xef;" horiz-adv-x="542" d="M-59 1284q0 -53 34.5 -91t83.5 -38q51 0 86 38t35 91t-35.5 90t-85.5 37q-49 0 -83.5 -37t-34.5 -90zM174 0h195v1051l-195 -31v-1020zM367 1284q0 -53 34.5 -91t85.5 -38q49 0 84 38t35 91t-35.5 90t-83.5 37q-51 0 -85.5 -37t-34.5 -90z" />
<glyph unicode="&#xf0;" horiz-adv-x="1200" d="M113 1337q82 -8 162.5 -36.5t154.5 -69.5l-92 -105l125 -73l86 100q14 -10 27.5 -21.5t25.5 -21.5q63 -55 114.5 -121.5t84.5 -134.5q-33 10 -83 20.5t-120 10.5q-94 0 -173 -32t-136.5 -89t-89 -138t-31.5 -180q0 -109 35 -197.5t96 -151t144 -96.5t182 -34 q100 0 185 36t146.5 104.5t96 170t34.5 230.5q0 178 -63 337t-186 300q-74 82 -166 147l69 80l-125 74l-67 -78q-86 45 -170 71.5t-154 35.5zM387 442q0 135 60.5 207t170.5 72q33 0 68 -5t66.5 -13.5t58.5 -18.5t43 -22q2 -10 5 -31t6 -45.5t5 -50.5t2 -46q0 -160 -59 -254 t-176 -94t-183.5 83t-66.5 218z" />
<glyph unicode="&#xf1;" horiz-adv-x="1112" d="M135 1008q10 -29 17.5 -52.5t12.5 -51t7 -61.5t2 -79v-764h186v760q55 55 126 93t128 38q74 0 105 -41q18 -25 25.5 -56.5t7.5 -101.5v-692h186v776q0 74 -25 129q-29 66 -94 106t-147 40q-47 0 -96.5 -12.5t-94.5 -39.5q-33 -18 -60.5 -40.5t-72.5 -59.5q0 47 -8 84 t-27 74zM205 1317l63 -107q31 35 59.5 56.5t75.5 21.5q45 0 74 -13t55.5 -29.5t57.5 -30t78 -13.5q88 0 140 36t101 99l-63 107q-31 -35 -60.5 -56.5t-76.5 -21.5q-45 0 -74 13.5t-55.5 28.5t-57 28.5t-78.5 13.5q-88 0 -139 -34t-100 -99z" />
<glyph unicode="&#xf2;" horiz-adv-x="1095" d="M102 514q0 -125 31 -225.5t88.5 -171t140 -108.5t185.5 -38q100 0 183 38t141.5 106.5t90 167t31.5 221.5q0 117 -27.5 217t-84 174t-141.5 117t-197 43q-102 0 -183 -38t-138.5 -108.5t-88.5 -170t-31 -224.5zM256 1362l444 -209l58 111l-412 272zM311 535 q0 197 54.5 285.5t177.5 88.5q55 0 99 -20.5t76 -67.5t48 -126.5t16 -198.5q0 -201 -62.5 -290t-168.5 -89q-59 0 -104.5 21.5t-75 70.5t-45 129t-15.5 197z" />
<glyph unicode="&#xf3;" horiz-adv-x="1095" d="M102 514q0 -125 31 -225.5t88.5 -171t140 -108.5t185.5 -38q100 0 183 38t141.5 106.5t90 167t31.5 221.5q0 117 -27.5 217t-84 174t-141.5 117t-197 43q-102 0 -183 -38t-138.5 -108.5t-88.5 -170t-31 -224.5zM311 535q0 197 54.5 285.5t177.5 88.5q55 0 99 -20.5 t76 -67.5t48 -126.5t16 -198.5q0 -201 -62.5 -290t-168.5 -89q-59 0 -104.5 21.5t-75 70.5t-45 129t-15.5 197zM352 1264l60 -111l444 209l-92 174z" />
<glyph unicode="&#xf4;" horiz-adv-x="1095" d="M102 514q0 -125 31 -225.5t88.5 -171t140 -108.5t185.5 -38q100 0 183 38t141.5 106.5t90 167t31.5 221.5q0 117 -27.5 217t-84 174t-141.5 117t-197 43q-102 0 -183 -38t-138.5 -108.5t-88.5 -170t-31 -224.5zM203 1247l65 -104l275 176l282 -176l74 104l-350 283z M311 535q0 197 54.5 285.5t177.5 88.5q55 0 99 -20.5t76 -67.5t48 -126.5t16 -198.5q0 -201 -62.5 -290t-168.5 -89q-59 0 -104.5 21.5t-75 70.5t-45 129t-15.5 197z" />
<glyph unicode="&#xf5;" horiz-adv-x="1095" d="M102 514q0 -125 31 -225.5t88.5 -171t140 -108.5t185.5 -38q100 0 183 38t141.5 106.5t90 167t31.5 221.5q0 117 -27.5 217t-84 174t-141.5 117t-197 43q-102 0 -183 -38t-138.5 -108.5t-88.5 -170t-31 -224.5zM186 1317l64 -107q31 35 59.5 56.5t75.5 21.5 q45 0 73.5 -13t55.5 -29.5t57.5 -30t77.5 -13.5q88 0 140.5 36t101.5 99l-64 107q-31 -35 -60.5 -56.5t-76.5 -21.5q-45 0 -73.5 13.5t-55 28.5t-57.5 28.5t-78 13.5q-88 0 -139 -34t-101 -99zM311 535q0 197 54.5 285.5t177.5 88.5q55 0 99 -20.5t76 -67.5t48 -126.5 t16 -198.5q0 -201 -62.5 -290t-168.5 -89q-59 0 -104.5 21.5t-75 70.5t-45 129t-15.5 197z" />
<glyph unicode="&#xf6;" horiz-adv-x="1095" d="M102 514q0 -125 31 -225.5t88.5 -171t140 -108.5t185.5 -38q100 0 183 38t141.5 106.5t90 167t31.5 221.5q0 117 -27.5 217t-84 174t-141.5 117t-197 43q-102 0 -183 -38t-138.5 -108.5t-88.5 -170t-31 -224.5zM211 1284q0 -53 35 -91t84 -38q51 0 86 38t35 91t-36 90 t-85 37t-84 -37t-35 -90zM311 535q0 197 54.5 285.5t177.5 88.5q55 0 99 -20.5t76 -67.5t48 -126.5t16 -198.5q0 -201 -62.5 -290t-168.5 -89q-59 0 -104.5 21.5t-75 70.5t-45 129t-15.5 197zM635 1284q0 -53 35 -91t86 -38q49 0 83.5 38t34.5 91t-35.5 90t-82.5 37 q-51 0 -86 -37t-35 -90z" />
<glyph unicode="&#xf7;" horiz-adv-x="1239" d="M102 461h1035v170h-1035v-170zM471 121q0 -61 41 -103.5t100 -42.5q61 0 104.5 42.5t43.5 103.5q0 63 -42 107t-102 44q-61 0 -103 -44t-42 -107zM471 969q0 -61 42 -103.5t101 -42.5t102.5 43.5t43.5 106.5q0 59 -42 102t-102 43q-61 0 -103 -44t-42 -105z" />
<glyph unicode="&#xf8;" horiz-adv-x="1095" d="M102 514q0 -260 131 -410l-112 -194l96 -57l107 180q49 -35 105 -49.5t118 -14.5q98 0 168.5 30t130.5 89q76 76 111.5 172.5t35.5 243.5q0 88 -12 154.5t-31.5 116.5t-44 87t-49.5 66l117 194l-99 60l-106 -181q-102 53 -225 54q-102 0 -183 -38t-138.5 -108.5 t-88.5 -170t-31 -224.5zM311 535q0 92 10.5 153.5t30.5 108.5q23 53 75 82.5t116 29.5q37 0 72.5 -11t68.5 -38l-340 -575q-33 106 -33 250zM406 166l342 577q16 -53 25 -110t9 -137q0 -72 -7 -121t-21 -94q-53 -166 -203 -166q-39 0 -76 14t-69 37z" />
<glyph unicode="&#xf9;" horiz-adv-x="1110" d="M164 291q0 -55 5 -98t19 -74q33 -72 106 -113t171 -41q188 0 309 148q14 -53 35.5 -86t60.5 -62l129 103q-63 51 -63 213v772l-186 -37v-737q-33 -68 -98.5 -115t-135.5 -47q-35 0 -66.5 13t-52.5 32q-29 27 -38 64.5t-9 115.5v715l-186 -37v-729zM303 1362l445 -209 l57 111l-412 272z" />
<glyph unicode="&#xfa;" horiz-adv-x="1110" d="M164 291q0 -55 5 -98t19 -74q33 -72 106 -113t171 -41q188 0 309 148q14 -53 35.5 -86t60.5 -62l129 103q-63 51 -63 213v772l-186 -37v-737q-33 -68 -98.5 -115t-135.5 -47q-35 0 -66.5 13t-52.5 32q-29 27 -38 64.5t-9 115.5v715l-186 -37v-729zM338 1264l59 -111 l445 209l-92 174z" />
<glyph unicode="&#xfb;" horiz-adv-x="1110" d="M164 291q0 -55 5 -98t19 -74q33 -72 106 -113t171 -41q188 0 309 148q14 -53 35.5 -86t60.5 -62l129 103q-63 51 -63 213v772l-186 -37v-737q-33 -68 -98.5 -115t-135.5 -47q-35 0 -66.5 13t-52.5 32q-29 27 -38 64.5t-9 115.5v715l-186 -37v-729zM209 1247l65 -104 l275 176l282 -176l74 104l-350 283z" />
<glyph unicode="&#xfc;" horiz-adv-x="1110" d="M164 291q0 -55 5 -98t19 -74q33 -72 106 -113t171 -41q188 0 309 148q14 -53 35.5 -86t60.5 -62l129 103q-63 51 -63 213v772l-186 -37v-737q-33 -68 -98.5 -115t-135.5 -47q-35 0 -66.5 13t-52.5 32q-29 27 -38 64.5t-9 115.5v715l-186 -37v-729zM219 1284q0 -53 35 -91 t84 -38q51 0 86 38t35 91t-36 90t-85 37t-84 -37t-35 -90zM645 1284q0 -53 35 -91t86 -38q49 0 84 38t35 91t-36 90t-83 37q-51 0 -86 -37t-35 -90z" />
<glyph unicode="&#xfd;" horiz-adv-x="960" d="M20 1010l228 -674q31 -92 54.5 -171t43.5 -171l74 10q-23 -78 -41.5 -124t-42.5 -77q-39 -47 -81 -74.5t-97 -41.5l59 -123q53 10 103.5 33.5t87.5 54.5q53 45 95 124.5t79 190.5l358 1059h-209l-182 -606q-23 -70 -40 -135.5t-30 -118.5h-12q-12 53 -31 123l-28 119 l-197 645zM291 1264l59 -111l445 209l-93 174z" />
<glyph unicode="&#xfe;" horiz-adv-x="1138" d="M141 1466q16 -43 24.5 -101t8.5 -144v-1651l184 41v504q47 -66 116 -100.5t147 -34.5q125 0 221 77q92 72 138 192.5t46 280.5q0 246 -104.5 384.5t-290.5 138.5q-78 0 -141.5 -26t-127.5 -89l-6 4q4 10 5 42t1 65v237q0 68 -5 116t-15 105zM362 250v520q16 20 25.5 31.5 t38.5 32.5q41 29 78 42t84 13q125 0 182 -107q12 -25 20.5 -47t13.5 -50t7 -63.5t2 -86.5q0 -119 -16.5 -189t-41 -113t-71.5 -67.5t-100 -24.5q-68 0 -126.5 33t-95.5 76z" />
<glyph unicode="&#xff;" horiz-adv-x="960" d="M20 1010l228 -674q31 -92 54.5 -171t43.5 -171l74 10q-23 -78 -41.5 -124t-42.5 -77q-39 -47 -81 -74.5t-97 -41.5l59 -123q53 10 103.5 33.5t87.5 54.5q53 45 95 124.5t79 190.5l358 1059h-209l-182 -606q-23 -70 -40 -135.5t-30 -118.5h-12q-12 53 -31 123l-28 119 l-197 645zM166 1284q0 -53 35 -91t84 -38q51 0 86 38t35 91t-36 90t-85 37t-84 -37t-35 -90zM592 1284q0 -53 35 -91t86 -38q49 0 83.5 38t34.5 91t-35.5 90t-82.5 37q-51 0 -86 -37t-35 -90z" />
<glyph unicode="&#x152;" horiz-adv-x="1753" d="M113 707q0 -406 217 -584q51 -41 99 -65.5t103.5 -37t124 -16.5t160.5 -4h875v170h-598v483h452v166h-452v430h542l25 162h-901q-72 0 -125 -3t-88 -11q-86 -16 -154.5 -59.5t-128.5 -118.5q-72 -92 -111.5 -215t-39.5 -297zM340 729q0 106 17.5 198.5t58.5 166.5 q59 111 178 137q55 12 129 12q47 0 95 -6t83 -10v-1053q-39 -6 -98.5 -12t-104.5 -6q-86 0 -146 31.5t-110 95.5q-63 80 -82.5 189.5t-19.5 256.5z" />
<glyph unicode="&#x153;" horiz-adv-x="1689" d="M102 514q0 -125 31 -225.5t88.5 -171t140 -108.5t185.5 -38q221 0 338 164q51 -86 144 -122t192 -36q100 0 189 33t163 99l-70 112q-111 -98 -254 -98q-57 0 -107 17.5t-88 54t-59.5 93t-21.5 134.5v51h624v78q0 246 -100 377t-305 131q-111 0 -190.5 -44t-127.5 -116 q-59 72 -140 114t-191 42q-102 0 -183 -38t-138.5 -108.5t-88.5 -170t-31 -224.5zM311 535q0 203 56.5 288.5t175.5 85.5q55 0 99 -20.5t76 -67.5t48 -126.5t16 -198.5q0 -70 -9 -137.5t-35.5 -122t-71.5 -87t-115 -32.5q-131 0 -185.5 100t-54.5 318zM975 612 q0 154 57.5 228.5t157.5 74.5q104 0 157.5 -84t53.5 -219h-426z" />
<glyph unicode="&#x178;" horiz-adv-x="1040" d="M-31 1411l447 -846v-565h205v561l450 850h-229l-238 -483q-23 -47 -43 -92t-39 -88q-16 47 -35.5 92t-42.5 90l-233 481h-242zM182 1612q0 -53 35 -91t84 -38q51 0 86 38t35 91t-36 90t-85 37t-84 -37t-35 -90zM614 1612q0 -53 35 -91t86 -38q49 0 84 38t35 91t-36 90 t-83 37q-51 0 -86 -37t-35 -90z" />
<glyph unicode="&#x2c6;" horiz-adv-x="819" d="M61 1247l66 -104l274 176l283 -176l74 104l-350 283z" />
<glyph unicode="&#x2dc;" horiz-adv-x="786" d="M41 1317l63 -107q31 35 60 56.5t76 21.5q45 0 73.5 -13t55 -29.5t57.5 -30t78 -13.5q88 0 140 36t101 99l-63 107q-31 -35 -60.5 -56.5t-76.5 -21.5q-45 0 -74 13.5t-55.5 28.5t-57 28.5t-77.5 13.5q-88 0 -139.5 -34t-100.5 -99z" />
<glyph unicode="&#x2000;" horiz-adv-x="948" />
<glyph unicode="&#x2001;" horiz-adv-x="1896" />
<glyph unicode="&#x2002;" horiz-adv-x="948" />
<glyph unicode="&#x2003;" horiz-adv-x="1896" />
<glyph unicode="&#x2004;" horiz-adv-x="632" />
<glyph unicode="&#x2005;" horiz-adv-x="474" />
<glyph unicode="&#x2006;" horiz-adv-x="316" />
<glyph unicode="&#x2007;" horiz-adv-x="316" />
<glyph unicode="&#x2008;" horiz-adv-x="237" />
<glyph unicode="&#x2009;" horiz-adv-x="379" />
<glyph unicode="&#x200a;" horiz-adv-x="105" />
<glyph unicode="&#x2010;" horiz-adv-x="620" d="M102 461h416v186h-416v-186z" />
<glyph unicode="&#x2011;" horiz-adv-x="620" d="M102 461h416v186h-416v-186z" />
<glyph unicode="&#x2012;" horiz-adv-x="620" d="M102 461h416v186h-416v-186z" />
<glyph unicode="&#x2013;" horiz-adv-x="1189" d="M102 492h985v153h-985v-153z" />
<glyph unicode="&#x2014;" horiz-adv-x="1648" d="M102 492h1444v153h-1444v-153z" />
<glyph unicode="&#x2018;" horiz-adv-x="526" d="M113 1098q0 -94 48 -152.5t122 -58.5q63 0 106 44t43 109q0 53 -20.5 79t-45 40.5t-45 23.5t-20.5 31q0 41 38 86t95 68l-65 92q-53 -23 -100.5 -59.5t-82 -83.5t-54 -102.5t-19.5 -116.5z" />
<glyph unicode="&#x2019;" horiz-adv-x="526" d="M92 961l66 -93q53 23 100 60t82 84t54.5 102.5t19.5 116.5q0 94 -48.5 152.5t-121.5 58.5q-63 0 -106.5 -44t-43.5 -110q0 -53 20.5 -78.5t45 -40t45 -24.5t20.5 -31q0 -41 -37.5 -86t-95.5 -67z" />
<glyph unicode="&#x201a;" horiz-adv-x="526" d="M92 -201l66 -92q53 23 100 59.5t82 84t54.5 103t19.5 116.5q0 94 -48.5 152.5t-121.5 58.5q-63 0 -106.5 -44t-43.5 -110q0 -53 20.5 -78.5t45 -40t45 -25t20.5 -30.5q0 -41 -37.5 -86t-95.5 -68z" />
<glyph unicode="&#x201c;" horiz-adv-x="950" d="M113 1098q0 -94 48 -152.5t122 -58.5q63 0 106 44t43 109q0 53 -20.5 79t-45 40.5t-45 23.5t-20.5 31q0 41 38 86t95 68l-65 92q-53 -23 -100.5 -59.5t-82 -83.5t-54 -102.5t-19.5 -116.5zM537 1098q0 -94 48 -152.5t122 -58.5q63 0 106 44t43 109q0 53 -20.5 79 t-45 40.5t-45 23.5t-20.5 31q0 41 38 86t95 68l-65 92q-53 -23 -100.5 -59.5t-82.5 -83.5t-54 -102.5t-19 -116.5z" />
<glyph unicode="&#x201d;" horiz-adv-x="950" d="M92 961l66 -93q53 23 100 60t82 84t54.5 102.5t19.5 116.5q0 94 -48.5 152.5t-121.5 58.5q-63 0 -106.5 -44t-43.5 -110q0 -53 20.5 -78.5t45 -40t45 -24.5t20.5 -31q0 -41 -37.5 -86t-95.5 -67zM516 961l66 -93q53 23 100 60t82 84t54.5 102.5t19.5 116.5 q0 94 -48.5 152.5t-121.5 58.5q-63 0 -106.5 -44t-43.5 -110q0 -53 20.5 -78.5t45 -40t45 -24.5t20.5 -31q0 -41 -38 -86t-95 -67z" />
<glyph unicode="&#x201e;" horiz-adv-x="954" d="M92 -201l66 -92q53 23 100 59.5t82 84t54.5 103t19.5 116.5q0 94 -48.5 152.5t-121.5 58.5q-63 0 -106.5 -44t-43.5 -110q0 -53 20.5 -78.5t45 -40t45 -25t20.5 -30.5q0 -41 -37.5 -86t-95.5 -68zM520 -201l66 -92q53 23 100 59.5t82 84t54.5 103t19.5 116.5 q0 94 -48.5 152.5t-121.5 58.5q-63 0 -106.5 -44t-43.5 -110q0 -53 20.5 -78.5t45 -40t45 -25t20.5 -30.5q0 -41 -37.5 -86t-95.5 -68z" />
<glyph unicode="&#x2022;" horiz-adv-x="1038" d="M164 727q0 -76 27.5 -141.5t75.5 -114.5t112.5 -77.5t138.5 -28.5t138.5 28.5t113.5 77.5t76.5 114.5t27.5 141.5t-27.5 141.5t-76.5 114.5t-113.5 78t-138.5 29t-138.5 -29t-112.5 -78t-75.5 -114.5t-27.5 -141.5z" />
<glyph unicode="&#x2026;" horiz-adv-x="1552" d="M143 129q0 -66 43 -112t105 -46q59 0 102 46t43 112q0 63 -44 106.5t-105 43.5q-59 0 -101.5 -43t-42.5 -107zM631 129q0 -66 42 -112t103 -46q59 0 102.5 46t43.5 112q0 63 -43 106.5t-107 43.5q-59 0 -100 -43t-41 -107zM1116 129q0 -66 42 -112t104 -46q59 0 103 46 t44 112q0 63 -44 106.5t-105 43.5q-59 0 -101.5 -43t-42.5 -107z" />
<glyph unicode="&#x202f;" horiz-adv-x="379" />
<glyph unicode="&#x2039;" horiz-adv-x="612" d="M102 500l299 -453l127 86l-235 367l237 364l-129 90z" />
<glyph unicode="&#x203a;" horiz-adv-x="612" d="M82 862l242 -362l-240 -367l127 -86l299 453l-299 454z" />
<glyph unicode="&#x205f;" horiz-adv-x="474" />
<glyph unicode="&#x20ac;" horiz-adv-x="1280" d="M82 473h227q37 -162 131 -283q80 -104 188.5 -157t250.5 -53q111 0 185.5 23t133.5 54l-35 168q-57 -45 -117.5 -66.5t-142.5 -21.5q-113 0 -205 56.5t-141 173.5q-20 43 -33 106h502v154h-518q0 16 -1 34.5t-1 36.5v68q0 12 2 22h518v154h-498q8 41 19.5 74t25.5 61 q49 98 129 150.5t185 52.5q72 0 131 -19.5t119 -62.5l34 170q-53 29 -118.5 49.5t-165.5 20.5q-166 0 -298 -85t-210 -239q-39 -70 -64 -172h-233v-154h209q-2 -23 -3 -46t-1 -48v-51q0 -8 2 -16h-207v-154z" />
<glyph unicode="&#x2122;" horiz-adv-x="1980" d="M61 1305h258v-699h154v699h258v145h-670v-145zM918 606h153v662l12 -2l252 -660h103l250 660l16 4v-664h154v844h-232l-237 -625l-238 625h-233v-844z" />
<glyph unicode="&#x25fc;" horiz-adv-x="1034" d="M0 0v1034h1034v-1034h-1034z" />
<glyph unicode="&#xfb01;" horiz-adv-x="1146" d="M76 893h98v-893h191v893h415v-893h195v1026h-613v166q0 78 36 121t102 43q33 0 65.5 -10.5t59.5 -22.5l63 123q-39 25 -95 37t-120 12q-57 0 -103 -11t-81 -38q-41 -31 -79 -91.5t-38 -164.5q0 -6 1 -29.5t1 -52.5q0 -27 1 -50.5t1 -31.5h-100v-133zM743 1341 q0 -55 39 -95t95 -40q57 0 96 40t39 95q0 59 -39 98.5t-94 39.5t-95.5 -40t-40.5 -98z" />
<glyph unicode="&#xfb02;" horiz-adv-x="1134" d="M76 893h98v-891h191v891h213l51 133h-269v166q0 80 36 123t102 43q33 0 65.5 -10.5t59.5 -22.5l63 123q-84 49 -215 49q-117 0 -186 -49q-41 -29 -78 -90.5t-37 -167.5q0 -6 1 -29.5t1 -50.5t1 -51.5t1 -32.5h-98v-133zM745 1448q12 -59 17.5 -122.5t5.5 -172.5v-930 q0 -76 8 -110.5t31 -67.5q29 -41 66.5 -59.5t93.5 -18.5q61 0 116 23l-32 116q-16 -6 -36 -0.5t-32 19.5q-10 12 -16 38.5t-6 108.5v922q0 98 -2.5 171t-16.5 124z" />
</font>
</defs>
</svg>
