<?xml version="1.0" standalone="no"?>
<!DOCTYPE svg PUBLIC "-//W3C//DTD SVG 1.1//EN" "http://www.w3.org/Graphics/SVG/1.1/DTD/svg11.dtd">
<svg xmlns="http://www.w3.org/2000/svg">
<metadata>Copyright (C) 2014 by original authors @ fontello.com</metadata>
<defs>
<font id="fontello" horiz-adv-x="1000" >
<font-face font-family="fontello" font-weight="400" font-stretch="normal" units-per-em="1000" ascent="850" descent="-150" />
<missing-glyph horiz-adv-x="1000" />
<glyph glyph-name="download" unicode="&#xe800;" d="m0 84v73q0 33 24 56t57 24 56-24 24-56v-73q0-17 12-29t30-13h531q18 0 30 13t12 29v73q0 33 24 56t56 24 57-24 24-56v-73q0-84-59-143t-144-60h-531q-84 0-144 60t-59 143z m155 359q0 33 24 57 23 23 56 23t57-23l105-106v344q0 33 24 57t56 23 57-23 24-57v-344l110 110q24 24 57 24t56-24q24-23 24-56t-24-57l-247-247q-24-25-57-25-32 0-56 25l-242 242q-24 24-24 57z" horiz-adv-x="937.5" />
<glyph glyph-name="cancel" unicode="&#xe801;" d="m724 112q0-22-15-38l-76-76q-16-15-38-15t-38 15l-164 165-164-165q-16-15-38-15t-38 15l-76 76q-16 16-16 38t16 38l164 164-164 164q-16 16-16 38t16 38l76 76q16 16 38 16t38-16l164-164 164 164q16 16 38 16t38-16l76-76q15-15 15-38t-15-38l-164-164 164-164q15-15 15-38z" horiz-adv-x="785.7" />
<glyph glyph-name="angle-right" unicode="&#xe802;" d="m332 314q0-7-6-13l-260-260q-5-5-12-5t-13 5l-28 28q-6 6-6 13t6 13l219 219-219 220q-6 5-6 12t6 13l28 28q5 6 13 6t12-6l260-260q6-5 6-13z" horiz-adv-x="357.1" />
<glyph glyph-name="search" unicode="&#xe803;" d="m772 78q30-34 6-62l-46-46q-36-32-68 0l-190 190q-74-42-156-42-128 0-223 95t-95 223 90 219 218 91 224-95 96-223q0-88-46-162z m-678 358q0-88 68-156t156-68 151 63 63 153q0 88-68 155t-156 67-151-63-63-151z" horiz-adv-x="789" />
<glyph glyph-name="menu" unicode="&#xe804;" d="m650 400q22 0 36-15t14-35-15-35-35-15l-600 0q-20 0-35 15t-15 35 14 35 36 15l600 0z m-600 100q-20 0-35 15t-15 35 14 35 36 15l600 0q22 0 36-15t14-35-15-35-35-15l-600 0z m600-300q22 0 36-15t14-35-15-35-35-15l-600 0q-20 0-35 15t-15 35 14 35 36 15l600 0z" horiz-adv-x="700" />
<glyph glyph-name="cog" unicode="&#xe805;" d="m571 350q0 59-41 101t-101 42-101-42-42-101 42-101 101-42 101 42 41 101z m286 61v-124q0-7-4-13t-11-7l-104-16q-10-30-21-51 19-27 59-77 6-6 6-13t-5-13q-15-21-55-61t-53-39q-7 0-14 5l-77 60q-25-13-51-21-9-76-16-104-4-16-20-16h-124q-8 0-14 5t-6 12l-16 103q-27 9-50 21l-79-60q-6-5-14-5-8 0-14 6-70 64-92 94-4 5-4 13 0 6 5 12 8 12 28 37t30 40q-15 28-23 55l-102 15q-7 1-11 7t-5 13v124q0 7 5 13t10 7l104 16q8 25 22 51-23 32-60 77-6 7-6 14 0 5 5 12 15 20 55 60t53 40q7 0 15-5l77-60q24 13 50 21 9 76 17 104 3 15 20 15h124q7 0 13-4t7-12l15-103q28-9 50-21l80 60q5 5 13 5 7 0 14-5 72-67 92-95 4-5 4-13 0-6-4-12-9-12-29-38t-30-39q14-28 23-55l102-15q7-1 12-7t4-13z" horiz-adv-x="857.1" />
<glyph glyph-name="angle-left" unicode="&#xe806;" d="m350 546q0-7-6-12l-219-220 219-219q6-6 6-13t-6-13l-28-28q-5-5-12-5t-13 5l-260 260q-6 6-6 13t6 13l260 260q5 6 13 6t12-6l28-28q6-5 6-13z" horiz-adv-x="357.1" />
<glyph glyph-name="comment" unicode="&#xe807;" d="m62 419c0 169 196 306 438 306 242 0 438-137 438-306 0-164-185-298-418-306-37-40-107-85-232-138 0 0 60 87 70 152-178 39-296 155-296 292z" horiz-adv-x="1000" />
<glyph glyph-name="link-ext" unicode="&#xe808;" d="m786 332v-178q0-67-47-114t-114-47h-464q-67 0-114 47t-47 114v464q0 66 47 113t114 48h393q7 0 12-5t5-13v-36q0-8-5-13t-12-5h-393q-37 0-63-26t-27-63v-464q0-37 27-63t63-27h464q37 0 63 27t26 63v178q0 8 5 13t13 5h36q8 0 13-5t5-13z m214 482v-285q0-15-11-26t-25-10-25 10l-98 99-364-364q-5-6-13-6t-13 6l-63 63q-6 6-6 13t6 13l364 364-99 98q-10 11-10 25t10 25 26 11h285q15 0 25-11t11-25z" horiz-adv-x="1000" />
<glyph glyph-name="calculator" unicode="&#xe80a;" d="m767 725h-534c-16 0-25-12-25-28v-694c0-16 9-28 25-28h534c16 0 25 12 25 28v694c0 16-9 28-25 28z m-350-656h-125v73h125v-73z m0 114h-125v73h125v-73z m0 115h-125v73h125v-73z m146-229h-125v73h125v-73z m0 114h-125v73h125v-73z m0 115h-125v73h125v-73z m145-229h-125v73h125v-73z m0 114h-125v73h125v-73z m0 115h-125v73h125v-73z m0 125h-416v208h416v-208z" horiz-adv-x="1000" />
<glyph glyph-name="scissors" unicode="&#xe80b;" d="m875 484c-55 17-114 19-170 2l-244-90c-32 16-73 36-107 38-12 1-57-1-62 14-2 8 7 29 0 53-14 46-72 71-116 58-37-12-60-47-48-86 11-34 42-53 77-58 19-3 38 0 57 0 46 3 73 0 115-19 18-8 36-19 49-34-16-32-80-51-116-62-30-9-67-3-98-13-40-12-66-46-53-88 14-46 69-71 114-58 42 13 66 49 53 92-3 9-5 13-10 21-8 14-9 22 8 27l23 7 112 21 239-97c55-19 114-20 170-4l-289 143 296 133z m-633-43c-30-9-81 3-90 35-9 29 2 53 31 62 29 8 74-9 83-40 7-22 1-49-24-57z m24-278c-32-9-74 8-84 42-8 27 10 52 36 60 34 11 72-1 84-38 9-28-9-55-36-64z" horiz-adv-x="1000" />
<glyph glyph-name="help" unicode="&#xe80c;" d="m572 117h-140v-142h140v142z m-3 131c7 15 25 35 55 60 57 48 94 87 111 115 18 28 26 57 26 89 0 57-23 106-71 149-47 43-111 64-191 64-76 0-138-21-185-63-47-42-72-94-75-154l128-16c9 42 25 73 49 94 24 20 54 31 89 31 37 0 66-10 88-30 22-20 32-43 32-71 0-20-6-38-18-55-8-10-32-32-73-66-41-34-68-64-82-91-13-27-20-62-20-104 0-4 0-15 0-34h127c0 40 3 67 10 82" horiz-adv-x="1000" />
<glyph glyph-name="email" unicode="&#xe80d;" d="m602 301l205-222h-614l191 225 109-114 109 111z m-477 254v-444l205 239-205 205z m545-205l205-239v444l-205-205z m171 273l-684 0 336-346 348 346z" horiz-adv-x="1000" />
<glyph glyph-name="alert" unicode="&#xe80e;" d="m500 725c-207 0-375-168-375-375 0-207 168-375 375-375s375 168 375 375c0 207-168 375-375 375z m0-675c-166 0-300 134-300 300 0 166 134 300 300 300s300-134 300-300c0-166-134-300-300-300z m58 462c0-25-26-210-58-210-32 0-58 185-58 210s26 46 58 46c32 0 58-20 58-46z m0-324c0-26-26-46-58-46-32 0-58 20-58 46s26 46 58 46c32 0 58-21 58-46z" horiz-adv-x="1000" />
<glyph glyph-name="mouse" unicode="&#xe80f;" d="m875 86c-61-8-117 37-147 87-44 84-18 180 5 266 23 86 42 161-4 204-28 27-63 38-96 31-40-8-74-39-96-89-4-9-15-13-24-9-8 4-12 15-8 24 27 60 70 99 121 109 45 9 91-6 128-40 61-58 38-146 13-239-34-130-71-264 108-344z m-399 481c-92 30-194-11-237-101l-16-33 154-73 99 207z m43-21l-99-207 154-73 16 33c43 89 11 195-71 247z m-375-279c-46-97-5-213 92-259 97-47 212-6 259 91l65 138-350 167-66-137z" horiz-adv-x="1000" />
<glyph glyph-name="edit" unicode="&#xe810;" d="m844 6v-29-2h-1-687v31h658l-128 113 159 70 0-183h-1z m-364 552l170-380 15-34 34 15 104 47 34 15-15 34-170 380-30 68c-9 19-31 27-50 19l-104-47c-18-8-27-30-18-49l30-68z m-324-489h460l-29 21h-431v-21z m360 104h-360v-21h389l-29 21z" horiz-adv-x="1000" />
<glyph glyph-name="info" unicode="&#xe811;" d="m426 430h148v-455h-148v455z m0 295h148v-148h-148v148z" horiz-adv-x="1000" />
<glyph glyph-name="telephone" unicode="&#xe812;" d="m815 228c46-15 71-68 55-118l-20-63c-8-25-25-44-45-55-4-7-616-78-672 532-20 27 4 79 6 81l31 58c26 46 81 64 124 41l54-30c43-24 57-80 32-126l-32-58c-12-23-33-39-55-46 110-212 232-284 334-307l15 47c16 50 67 78 114 63l59-19" horiz-adv-x="1000" />
<glyph glyph-name="wrench" unicode="&#xe813;" d="m609-9l-100 167c-74-5-149 31-190 99-29 49-36 107-22 159 5 13 17 28 37-6l50-82c11-18 34-24 51-13l130 78c18 11 23 34 13 51l-46 76c-1 2-2 4-4 6-20 34-2 38 11 36 53-11 101-44 132-94 40-68 37-150-2-213l100-166c-44-45-98-79-160-98z" horiz-adv-x="1000" />
<glyph glyph-name="email-alt" unicode="&#xe814;" d="m849 600h-698c-14 0-26-6-26-21v-458c0-14 12-21 26-21h698c14 0 26 7 26 21v458c0 15-12 21-26 21z m-308-396h-263c-14 0-26 10-26 21 0 11 12 21 26 21h263c14 0 26-10 26-21 0-11-12-21-26-21z m0 94h-263c-14 0-26 9-26 21 0 11 12 21 26 21h263c14 0 26-10 26-21 0-12-12-21-26-21z m0 94h-263c-14 0-26 9-26 21 0 11 12 20 26 20h263c14 0 26-9 26-20 0-12-12-21-26-21z m251 50c0-14-16-29-30-29h-102c-14 0-25 15-25 29v62c0 15 11 23 25 23h102c14 0 30-8 30-23v-62z" horiz-adv-x="1000" />
<glyph glyph-name="printer" unicode="&#xe815;" d="m854 551v-259c0-24-20-46-44-46h-620c-24 0-44 22-44 46v259c0 23 19 39 42 39h156v92c0 23 21 42 44 43h224c23-1 44-20 44-43v-92h156c23 0 42-16 42-39z m-521-357h334v-219h-334v219z m42-84h250v42h-250v-42z m0-93h250v41h-250v-41z" horiz-adv-x="1000" />
<glyph glyph-name="minus" unicode="&#xe816;" d="m125 445h750v-190h-750v190z" horiz-adv-x="1000" />
<glyph glyph-name="lock" unicode="&#xe817;" d="m747 465h-28v46c0 118-101 214-219 214-118 0-219-96-219-214v-46h-28c-34 0-65-24-65-59v-369c0-34 31-62 65-62h494c34 0 66 28 66 62v369c0 35-32 59-66 59z m-112 0h-270v46c0 74 61 134 135 134 74 0 135-60 135-134v-46z" horiz-adv-x="1000" />
<glyph glyph-name="asterisk" unicode="&#xe818;" d="m127 246l214 105-212 105 94 166 198-132-14 235h190l-16-237 196 130 96-164-214-105 212-105-96-166-196 132 15-235h-191l16 237-198-130-94 164z" horiz-adv-x="1000" />
<glyph glyph-name="user-alt" unicode="&#xe819;" d="m608 362c54 35 90 96 90 165 0 109-89 198-198 198-109 0-198-89-198-198 0-69 36-130 90-165-127-55-176-200-181-372 0-4 1-8 4-10 3-3 7-5 11-5h548c4 0 8 2 11 4 3 3 4 7 4 11-5 172-54 317-181 372z m-108-297l-61 74 48 159h-11l-21 42h90l-20-42h-11l47-159-61-74z" horiz-adv-x="1000" />
<glyph glyph-name="user" unicode="&#xe81a;" d="m732 41c-68-42-148-67-234-66-85 1-165 27-232 71m232-71c-85 1-165 27-232 71l2 172c1 88 73 159 161 158l147-2c88-1 159-73 158-161l-2-172c-68-42-148-67-234-66z m8 750c86-1 155-71 154-157-1-85-71-154-157-153-86 1-154 71-153 157 1 85 71 154 156 153z" horiz-adv-x="1000" />
<glyph glyph-name="add" unicode="&#xe81b;" d="m594 444v281h-188v-281h-281v-188h281v-281h188v281h281v188h-281z" horiz-adv-x="1000" />
<glyph glyph-name="book" unicode="&#xe81c;" d="m852 588c0 0-59 2-87 0-235-15-270-59-270-59s0 0-2 1c-39 133-268 105-268 105l0-47c-40 1-69 0-90-2-6-7-10-17-10-28v-445c0-5 1-12 2-17 54 4 265 14 328-38h89c57 63 274 45 330 42 0 3 1 9 1 13v445l-23 30z m-630-431c-15 0-24 0-45 0v297 99c21 0 30 1 45 1 1 0 2 0 3 0l6-342c0 0 56 25 162-20 60-26 82-56 86-73-25 26-131 38-257 38z m601 297v-297c-21 0-30 0-45 0-128 0-236-13-257-40v373c0 0 0 0 0 0s0 15 0 15v-15c0 27 117 59 259 59 15 0 22 0 43 0v-95z" horiz-adv-x="1000" />
<glyph glyph-name="pages" unicode="&#xe81d;" d="m872 484c-3 5-8 11-18 12-19 1-25 1-25 1l-91 0-19 113c0 0-2 15-17 27-6 4-18 5-24 5h-16-46-178v-191-202-191h178 66 193v191 150 52c0 11-1 22-3 33z m-174-311h-31v219h-4l-45-23-6 25 56 29h30v-250z m55 352l-16 112c59-18 106-63 126-120l-110 8z m-489-81h-9-26-104v-107-116-111h110 38 102v111 86 30c0 60-51 107-111 107z m-36-268c-18 0-34 6-42 11l6 17c6-4 20-10 36-10 28 0 37 17 36 30 0 23-20 32-42 32h-14v21h14c16 0 37 7 37 26 0 13-9 24-29 24-13 0-25-6-32-11l-6 16c8 6 25 12 42 12 32 0 46-19 46-39 0-17-9-31-30-38v-1c21-4 36-19 37-41 0-26-20-49-59-49z" horiz-adv-x="1000" />
<glyph glyph-name="delete" unicode="&#xe81e;" d="m596 350l279-263-112-112-261 280-265-280-112 112 282 263-282 263 112 112 265-280 261 280 112-112-279-263z" horiz-adv-x="1000" />
<glyph glyph-name="lightbulb" unicode="&#xe81f;" d="m621 122c0-4 0-6 0-6l-1 1v-3c0-7-1-14-2-21h-238c-1 7-2 14-2 21v8h243z m-284 153c-54 47-88 116-88 194 0 142 112 256 251 256 139 0 251-114 251-256 0-83-39-157-99-204-5-5-12-13-18-23h-269c-7 12-16 22-22 27-2 2-4 4-6 5 0 0 0 1 0 1s0 0 0 0m263-227c-12-18-29-32-49-41-6-19-27-32-53-32-26 0-48 14-53 33-19 9-35 23-46 40h201z m22 149c-1-11-1-21-1-30h-243c0 9 0 19 0 30h244z" horiz-adv-x="1000" />
<glyph glyph-name="right-big" unicode="&#xe820;" d="m588 63h-272l192 191h-383v192h383l-192 191h272l287-287-287-287z" horiz-adv-x="1000" />
<glyph glyph-name="clock" unicode="&#xe821;" d="m500 725c-207 0-375-168-375-375s168-375 375-375 375 168 375 375-168 375-375 375z m0-675c-166 0-300 134-300 300 0 166 134 300 300 300s300-134 300-300c0-166-134-300-300-300z m10 273l109-110-52-49-131 132 0 2h2v260h72v-235z" horiz-adv-x="1000" />
<glyph glyph-name="ok" unicode="&#xe822;" d="m932 534q0-22-15-38l-404-404-76-76q-16-15-38-15t-38 15l-76 76-202 202q-15 16-15 38t15 38l76 76q16 16 38 16t38-16l164-165 366 367q16 16 38 16t38-16l76-76q15-16 15-38z" horiz-adv-x="1000" />
<glyph glyph-name="camera" unicode="&#xe823;" d="m536 475q66 0 113-47t47-114-47-113-113-47-114 47-47 113 47 114 114 47z m393 232q59 0 101-42t41-101v-500q0-59-41-101t-101-42h-786q-59 0-101 42t-42 101v500q0 59 42 101t101 42h125l28 76q11 27 39 47t58 20h286q29 0 57-20t39-47l29-76h125z m-393-643q103 0 176 74t74 176-74 177-176 73-177-73-73-177 73-176 177-74z" horiz-adv-x="1071.4" />
<glyph glyph-name="minus-1" unicode="&#xe824;" d="m786 439v-107q0-22-16-38t-38-15h-678q-23 0-38 15t-16 38v107q0 23 16 38t38 16h678q22 0 38-16t16-38z" horiz-adv-x="785.7" />
<glyph glyph-name="plus" unicode="&#xe825;" d="m786 439v-107q0-22-16-38t-38-15h-232v-233q0-22-16-37t-38-16h-107q-22 0-38 16t-15 37v233h-232q-23 0-38 15t-16 38v107q0 23 16 38t38 16h232v232q0 22 15 38t38 16h107q23 0 38-16t16-38v-232h232q22 0 38-16t16-38z" horiz-adv-x="785.7" />
<glyph glyph-name="facebook" unicode="&#xe826;" d="m285 540h144l-17-159h-127v-460h-190v460h-95v159h95v95q0 102 48 154t158 52h126v-158h-79q-22 0-35-4t-19-13-7-19-2-28v-79z" horiz-adv-x="428.6" />
<glyph glyph-name="twitter" unicode="&#xe827;" d="m904 622q-37-54-90-93 0-8 0-23 0-73-21-145t-64-139-103-117-144-82-181-30q-151 0-276 81 19-3 43-3 126 0 224 77-59 2-105 36t-64 89q19-2 34-2 24 0 48 6-63 13-104 62t-41 115v2q38-21 82-23-37 25-59 64t-22 86q0 49 25 91 68-83 164-133t208-55q-5 21-5 41 0 75 53 127t127 53q79 0 132-57 61 12 114 44-20-64-79-100 52 6 104 28z" horiz-adv-x="928.6" />
<glyph glyph-name="youtube" unicode="&#xe828;" d="m542 156v-118q0-37-22-37-13 0-25 12v168q12 12 25 12 22 0 22-37z m188-1v-25h-50v25q0 38 25 38t25-38z m-539 122h60v52h-174v-52h59v-318h55v318z m161-318h50v276h-50v-211q-17-23-32-23-10 0-11 11-1 2-1 20v203h-50v-218q0-28 5-41 7-21 32-21 27 0 57 34v-30z m240 83v110q0 41-5 55-10 31-40 31-28 0-52-30v121h-50v-370h50v27q25-31 52-31 30 0 40 31 5 15 5 56z m188 6v7h-51q0-29-1-34-4-20-22-20-26 0-26 38v49h100v57q0 44-15 65-22 28-59 28-38 0-60-28-15-21-15-65v-96q0-44 16-65 22-29 60-29 40 0 60 30 10 15 12 30 1 5 1 33z m-339 509v117q0 39-24 39t-24-39v-117q0-39 24-39t24 39z m401-419q0-131-14-195-8-33-33-56t-57-25q-102-12-309-12t-310 12q-32 3-57 25t-32 56q-15 62-15 195 0 131 15 195 7 33 32 56t57 26q103 11 310 11t309-11q33-4 57-26t33-56q14-62 14-195z m-557 712h57l-67-223v-151h-56v151q-8 42-34 119-21 57-37 104h60l39-147z m207-186v-97q0-46-16-66-21-29-59-29-38 0-59 29-15 21-15 66v97q0 45 15 65 21 29 59 29 38 0 59-29 16-20 16-65z m187 91v-279h-51v31q-30-35-58-35-25 0-33 21-4 13-4 42v220h51v-205q0-19 0-20 2-12 12-12 15 0 32 24v213h51z" horiz-adv-x="857.1" />
<glyph glyph-name="gplus" unicode="&#xe829;" d="m489 33q0 11-3 22t-5 20-10 19-11 17-15 17-16 14-17 14-18 13-18 13-17 12q-10 1-28 1-30 0-59-4t-60-14-55-26-39-41-15-60q0-38 20-68t52-47 67-25 71-9q33 0 63 7t56 22 42 41 15 62z m-67 481q0 33-9 71t-27 72-46 59-67 22q-52 0-80-38t-29-92q0-26 7-55t19-58 32-53 43-37 54-15q54 0 79 34t24 90z m-73 265h244l-76-45h-75q40-25 61-70t22-94q0-41-13-74t-31-51-37-36-31-34-13-38q0-14 9-28t24-27 33-27 36-31 32-37 24-47 10-60q0-89-79-157-84-73-234-73-33 0-67 6t-68 18-60 33-43 49-17 68q0 34 21 75 18 36 53 62t81 40 87 20 83 7q-35 47-35 83 0 7 1 14t3 10 4 12 4 12q-22-2-39-2-83 0-143 54t-59 138q0 78 53 139t130 79q53 11 105 11z m580-143v-72h-143v-143h-72v143h-143v72h143v143h72v-143h143z" horiz-adv-x="928.6" />
<glyph glyph-name="play" unicode="&#xe82a;" d="m772 333l-741-412q-13-7-22-2t-9 20v822q0 14 9 20t22-2l741-412q13-7 13-17t-13-17z" horiz-adv-x="785.7" />
</font>
</defs>
</svg>
